<svg xmlns="http://www.w3.org/2000/svg" width="600" height="300" viewBox="0 0 90 80">
    <g fill="#763cbe">
            <path d="M40.2 43.782h-4.104v-5.554h4.105c.737-.074 1.47.188 2.008.718.539.53.831 1.277.802 2.049.025.772-.268 1.518-.805 2.05-.537.533-1.267.801-2.005.737m-4.105-13.065h3.89c.97-.108 1.915.37 2.433 1.232.518.862.518 1.956 0 2.818-.518.862-1.462 1.34-2.432 1.231h-3.89v-5.28zm7.236 6.76l-.972-.455.972-.466c1.201-.65 1.952-1.945 1.946-3.355 0-2.94-1.868-4.693-5-4.693h-6.672v17.484h6.945c3.093 0 4.95-1.804 4.95-4.815.092-1.584-.773-3.06-2.169-3.7M23.489 43.58L23.489 30.919 25.815 30.919 25.815 41.377 31.226 41.377 31.226 43.58zM52.952 43.572c-1.168.073-2.313-.359-3.16-1.192-.847-.834-1.321-1.995-1.308-3.204V30.92h2.366v8.156c-.054.814.335 1.59 1.01 2.014.673.423 1.52.423 2.194 0 .674-.424 1.063-1.2 1.01-2.014V30.92h2.346v8.247c.013 1.207-.46 2.366-1.305 3.2-.845.833-1.987 1.266-3.153 1.196" transform="translate(0 .32)"/>
            <path d="M40.162 15.244c-8.906-.004-16.938 5.428-20.349 13.763-3.411 8.336-1.53 17.932 4.767 24.314 6.296 6.382 15.767 8.292 23.996 4.84 8.23-3.452 13.595-11.587 13.595-20.61-.011-12.311-9.857-22.29-22.009-22.307m0 43.684c-8.54.004-16.241-5.205-19.511-13.198-3.27-7.993-1.465-17.194 4.574-23.312 6.039-6.118 15.121-7.947 23.01-4.634 7.89 3.313 13.032 11.115 13.028 19.767-.017 11.8-9.454 21.36-21.1 21.377" transform="translate(0 .32)"/>
            <path d="M40.163 13.83c-9.475-.003-18.02 5.776-21.648 14.643-3.63 8.868-1.628 19.076 5.07 25.866 6.7 6.789 16.775 8.82 25.53 5.148 8.753-3.672 14.462-12.326 14.462-21.925-.011-13.098-10.486-23.715-23.414-23.731m0 49.645c-10.352.004-19.686-6.31-23.65-15.999-3.963-9.688-1.774-20.84 5.546-28.257 7.32-7.415 18.328-9.632 27.89-5.617 9.563 4.015 15.796 13.472 15.792 23.959-.016 14.305-11.459 25.897-25.578 25.914M53.753.488C49.086-.6 43.37 1.47 43.37 1.47c-1.02.372-2.098.558-3.184.55-1.103.03-2.202-.14-3.243-.501 0 0-5.716-2.12-10.383-.982 0 0-4.587.874-3.5 6.87 0 0 .247-4.672 6.081-4.662 0 0 2.185-.088 6.763 2.022.422.215.858.402 1.306.559.296.098.613.186.988.265l.317.069c.14.03.282.05.425.059.842.124 1.699.124 2.541 0l.405-.157.376-.079h.158c.228-.057.452-.126.673-.206.45-.159.889-.346 1.315-.56 4.568-2.11 6.753-2.02 6.753-2.02 5.834 0 6.081 4.66 6.081 4.66 1.088-5.956-3.5-6.869-3.5-6.869M.312 38.972c.62-4.846 4.617-9.531 4.617-9.531.725-.83 1.295-1.79 1.683-2.831.385-1.037.585-2.136.59-3.245 0 0 0-6.216 2.688-10.267 0 0 2.431-4.03 7.649-.856 0 0-4.47-1.46-6.517 4.1 0 0-.847 2.016-.492 7.175.059.484.082.972.069 1.46-.009.338-.035.674-.08 1.008 0 .11 0 .222-.048.323l-.089.433c-.195.845-.503 1.659-.915 2.418-.06.11-.118.222-.187.332l-.207.333c-.036.041-.069.085-.099.13-.133.2-.278.392-.433.575-.305.359-.634.695-.984 1.008C3.984 35.184 3.265 37.3 3.265 37.3 1.198 42.852 5.5 44.786 5.5 44.786-.446 43.658.312 38.972.312 38.972M80.024 39.014c-.623-4.853-4.633-9.545-4.633-9.545-.71-.837-1.265-1.798-1.64-2.836-.397-1.036-.605-2.137-.613-3.25 0 0 0-6.225-2.697-10.281 0 0-2.44-4.037-7.675-.858 0 0 4.495-1.463 6.54 4.107 0 0 .859 2.018.493 7.184-.069.485-.102.974-.098 1.463 0 .313 0 .656.079 1.01v.322c0 .101.059.283.098.434.188.848.494 1.663.91 2.422l.187.333.217.333.09.131c.133.2.278.392.434.575.306.36.636.696.988 1.01 3.605 3.602 4.287 5.72 4.287 5.72 2.074 5.56-2.242 7.498-2.242 7.498 6.006-1.13 5.196-5.822 5.196-5.822M6.879 59.865c3.333 3.587 9.35 5.006 9.35 5.006 2.15.532 4.048 1.808 5.366 3.608 0 0 3.624 5.067 8.179 6.77 0 0 4.365 1.854 6.808-3.892 0 0-2.844 3.881-7.749.567 0 0-1.902-1.165-4.575-5.563-.23-.43-.492-.844-.781-1.237-.199-.275-.416-.536-.65-.78l-.23-.233-.321-.294c-.64-.58-1.357-1.065-2.133-1.439l-.35-.162-.37-.142-.16-.06c-.224-.081-.45-.149-.681-.203-.475-.11-.957-.188-1.442-.234-5.006-.79-6.838-2.097-6.838-2.097-4.925-3.304-2.492-7.46-2.492-7.46-4.285 4.51-.911 7.865-.911 7.865M73.408 59.865c-3.317 3.587-9.322 5.006-9.322 5.006-2.165.52-4.079 1.797-5.406 3.608 0 0-3.617 5.067-8.163 6.77 0 0-4.356 1.854-6.794-3.892 0 0 2.837 3.881 7.743.567 0 0 1.889-1.165 4.557-5.563.231-.432.495-.846.789-1.237.19-.253.41-.516.65-.78.07-.083.148-.16.23-.233l.319-.294c.646-.577 1.37-1.058 2.148-1.429l.35-.162.37-.142.16-.06c.41-.143.679-.203.679-.203.484-.115.974-.196 1.469-.244 4.996-.79 6.824-2.097 6.824-2.097 4.916-3.304 2.488-7.46 2.488-7.46 4.276 4.51.91 7.865.91 7.865M40.445 79.151L42.533 65.285 40.445 65.285 38.367 65.285zM79.429 50.212L67.071 43.58 66.411 45.715 65.741 47.85zM.876 50.212L13.233 43.58 13.903 45.715 14.563 47.85zM64.551 3.186L57.955 15.847 56.195 14.539 54.435 13.242zM15.753 3.186L22.349 15.847 24.11 14.539 25.87 13.242z" transform="translate(0 .32)"/>
    </g>
</svg>
