<svg width="1749" height="1166" viewBox="0 0 1749 1166" fill="none" xmlns="http://www.w3.org/2000/svg">
<path d="M0 105.523C0 163.59 0.2332 211.046 0.4664 211.046C0.6996 211.046 4.664 205.916 9.4446 199.619C55.2684 139.22 108.555 72.7584 160.558 11.5434C165.222 6.06323 169.07 1.16604 169.07 0.816235C169.07 0.349835 131.058 3.51369e-05 84.535 3.51369e-05H0V105.523Z" fill="#37003C"/>
<path d="M506.627 18.8892C475.845 52.0036 439.815 91.9974 416.495 118.932C404.019 133.39 392.709 146.333 391.426 147.732L389.211 150.297L397.14 164.639C401.454 172.568 412.298 191.457 421.159 206.732L437.367 234.599L427.339 247.542C415.912 262.467 374.869 317.035 360.061 336.974C318.201 393.642 252.439 489.837 212.912 552.101C205.916 562.945 199.036 573.789 197.637 576.004C183.762 597.342 140.62 668.001 122.547 699.367C117.183 708.578 112.402 715.924 111.936 715.691C110.77 715.341 88.033 680.594 62.381 640.251C52.9364 625.442 45.1242 613.316 44.891 613.316C44.5412 613.316 24.486 644.448 9.4446 668.701L0 683.859V844.184V1004.51L24.8358 955.537C61.4482 883.478 91.0646 828.093 123.829 770.376C132.458 755.102 134.673 752.187 135.839 753.469C136.655 754.285 145.05 766.295 154.612 780.054C184.461 823.662 204.983 852.346 206.149 852.346C206.615 852.346 208.714 849.081 210.696 845C223.289 820.864 237.281 794.163 247.425 775.39C264.565 743.675 266.314 740.527 278.091 719.422C284.038 708.811 290.217 697.851 291.733 694.936C323.332 638.152 382.565 540.324 424.774 475.145C441.098 449.959 487.854 379.999 499.514 363.442C504.412 356.446 508.376 350.5 508.376 350.15C508.376 349.8 500.564 336.857 491.003 321.35C463.602 276.808 458.005 267.131 458.588 265.498C459.637 262.7 502.429 208.597 533.911 170.236C575.538 119.632 626.492 60.1656 664.27 18.4228C672.782 9.09477 679.778 1.04937 679.778 0.699575C679.778 0.349774 644.798 -2.55406e-05 602.006 -2.55406e-05H524.117L506.627 18.8892Z" fill="#37003C"/>
<path d="M1194.57 17.1402C1150.49 66.8118 1068.17 165.572 1049.4 191.224C1048 193.09 1046.83 193.789 1046.14 192.973C1045.44 192.273 1036.46 179.447 1026.08 164.406C1015.7 149.365 1006.84 136.888 1006.26 136.655C1005.33 136.305 979.44 166.272 951.922 199.386C912.745 246.609 854.561 320.533 822.73 363.792C814.451 374.986 804.657 388.161 801.042 392.942C792.763 403.786 753.119 459.287 741.226 476.428C719.422 508.259 711.96 519.22 691.321 550.119C678.495 569.241 669.634 583.7 670.1 584.516C671.499 586.964 709.161 636.869 717.673 647.713C722.22 653.426 726.418 658.907 726.884 659.606C727.351 660.539 718.139 677.679 703.914 702.748C662.288 775.74 635.587 825.178 597.575 900.735C583.35 928.952 568.075 959.851 563.411 969.529C538.692 1021.53 530.297 1039.84 510.475 1084.38C493.335 1122.74 475.728 1163.67 475.728 1164.95C475.728 1165.53 507.093 1166 553.617 1166H631.622L633.488 1161.57C634.537 1159.24 640.834 1143.61 647.596 1126.94C679.895 1046.49 719.305 957.869 763.963 865.172C775.04 842.202 805.589 781.337 810.02 773.408L813.985 766.062L796.145 744.258C781.337 726.185 757.2 696.102 753.003 690.622C752.07 689.456 759.649 675.814 782.269 638.385C786.467 631.389 790.548 624.626 791.131 623.46C795.212 616.231 834.623 553.267 855.961 520.036C869.136 499.514 900.735 451.942 917.875 426.756C942.128 391.193 971.628 349.334 996.813 314.82C1015.82 288.818 1061.76 227.603 1064.44 224.805C1066.19 222.823 1067.59 224.455 1086.71 250.807C1097.79 266.198 1107.35 279.024 1107.82 279.374C1108.28 279.607 1110.38 277.391 1112.48 274.36C1153.17 214.544 1246.57 92.2306 1305.57 21.3378C1314.78 10.2608 1322.24 0.932806 1322.24 0.583006C1322.24 0.233206 1296.94 6.31809e-06 1265.93 6.31809e-06H1209.61L1194.57 17.1402Z" fill="#37003C"/>
<path d="M1647.67 8.51181C1643.59 13.1758 1636.01 21.571 1630.88 27.401C1625.75 33.1144 1619.46 40.227 1616.78 43.142C1606.63 54.3356 1607.21 53.053 1610.83 57.8336C1612.58 60.1656 1619.34 68.3276 1625.64 76.0232L1637.18 89.8986L1630.42 98.6436C1626.69 103.424 1620.04 111.936 1615.73 117.533C1596.49 142.135 1537.37 221.54 1515.92 251.623C1450.74 343.037 1389.17 437.133 1330.52 535.077C1328.89 537.876 1327.14 540.208 1326.79 540.324C1326.44 540.324 1315.48 528.781 1302.42 514.439L1278.75 488.437L1269.31 502.779C1229.31 563.994 1178.83 646.664 1143.96 708.345C1137.43 719.888 1131.37 730.616 1130.44 732.248C1119.24 751.37 1082.75 818.649 1063.16 856.427C1044.5 892.34 1003.93 974.426 1003.93 976.408C1003.93 977.341 1004.86 978.857 1006.02 979.79C1007.07 980.606 1022.35 995.764 1039.84 1013.37L1071.67 1045.44L1060.13 1073.42C1045.09 1109.57 1023.75 1163.32 1023.75 1164.83C1023.75 1165.65 1046.14 1166 1092.31 1166H1160.75L1165.18 1153.41C1167.52 1146.53 1169.5 1140.11 1169.5 1139.18C1169.5 1138.13 1164.95 1133.12 1159.35 1128.11C1149.79 1119.36 1134.05 1104.44 1109.57 1080.77L1099.07 1070.62L1108.75 1048.12C1122.39 1016.17 1128.11 1003.34 1145.6 964.282C1161.1 929.885 1163.2 925.221 1184.42 880.33C1197.6 852.229 1236.31 774.457 1254.03 740.41C1290.18 671.033 1347.31 568.425 1349.99 568.425C1350.69 568.425 1361.89 579.619 1374.83 593.261C1387.77 606.903 1398.73 617.747 1399.2 617.164C1399.67 616.697 1408.41 600.84 1418.44 581.951C1437.1 546.971 1469.28 488.904 1484.2 463.485C1488.63 455.789 1494.35 446.112 1496.68 441.914C1541.1 364.492 1637.76 214.078 1683.24 151.463L1687.2 146.1L1672.51 129.309C1664.47 120.098 1657.59 111.936 1657.24 111.12C1657 110.42 1660.73 104.59 1665.75 98.2938C1680.67 79.6378 1706.32 47.4562 1708.42 44.891C1709.47 43.6084 1713.55 38.5946 1717.52 33.814C1721.48 29.0334 1729.06 19.7054 1734.54 13.2924C1739.91 6.76281 1744.34 1.16601 1744.34 0.699606C1744.34 0.349806 1724.28 6.31809e-06 1699.79 0.116606L1655.14 0.233206L1647.67 8.51181Z" fill="#37003C"/>
<path d="M1742.47 648.296C1718.22 697.734 1709.01 716.857 1696.53 743.908C1681.49 776.673 1661.2 822.03 1654.44 838.004C1652.22 843.368 1650.01 847.682 1649.54 847.682C1648.37 847.682 1644.76 844.65 1615.96 819.931C1605.23 810.836 1596.14 803.374 1595.67 803.374C1594.74 803.374 1578.65 836.722 1559.06 879.397C1521.28 962.067 1490.5 1035.17 1460.42 1113.53C1452.95 1133.12 1445.49 1152.36 1443.97 1156.32C1442.46 1160.29 1441.18 1164.02 1441.18 1164.72C1441.18 1165.65 1459.6 1166 1503.32 1166H1565.36L1566.87 1160.99C1576.55 1130.09 1613.04 1028.88 1634.5 973.61C1646.28 943.294 1672.86 877.298 1674.73 873.917C1676.13 871.235 1676.36 871.468 1689.07 881.846C1714.02 902.484 1730.81 915.31 1731.63 914.494C1732.09 913.911 1736.17 903.3 1740.72 890.824L1749 868.087L1748.77 752.07L1748.42 636.053L1742.47 648.296Z" fill="#37003C"/>
<path d="M377.201 1110.27C365.075 1136.5 352.132 1165.18 352.132 1165.65C352.132 1165.88 375.219 1166 403.553 1166H454.973L448.793 1158.77C445.295 1154.69 442.264 1151.19 441.914 1150.84C441.331 1150.38 420.576 1125.66 395.974 1096.27C392.126 1091.73 388.628 1087.88 388.278 1087.88C387.928 1087.88 382.914 1098.02 377.201 1110.27Z" fill="#37003C"/>
</svg>
