<svg width="600" height="1084" viewBox="0 0 600 1084" fill="none" xmlns="http://www.w3.org/2000/svg">
<path fill-rule="evenodd" clip-rule="evenodd" d="M398.212 21.7117L570.493 10.83C570.493 10.83 600 9.19805 600 33.2332C600 57.2684 565.603 450.787 560.283 577.776C554.963 704.764 541.597 1035.21 541.597 1035.21C541.597 1035.21 541.079 1048.49 529.714 1048.49C518.349 1048.49 443.13 1048.49 443.13 1048.49L398.212 21.7117Z" fill="url(#paint0_radial)"/>
<path fill-rule="evenodd" clip-rule="evenodd" d="M398.212 21.7117L570.493 10.83C570.493 10.83 600 9.19805 600 33.2332C600 57.2684 565.603 450.787 560.283 577.776C554.963 704.764 541.597 1035.21 541.597 1035.21C541.597 1035.21 541.079 1048.49 529.714 1048.49C518.349 1048.49 443.13 1048.49 443.13 1048.49L398.212 21.7117Z" fill="url(#paint1_linear)"/>
<mask id="mask0" mask-type="alpha" maskUnits="userSpaceOnUse" x="398" y="10" width="202" height="1039">
<path fill-rule="evenodd" clip-rule="evenodd" d="M398.212 21.7117L570.493 10.83C570.493 10.83 600 9.19805 600 33.2332C600 57.2684 565.603 450.787 560.283 577.776C554.963 704.764 541.597 1035.21 541.597 1035.21C541.597 1035.21 541.079 1048.49 529.714 1048.49C518.349 1048.49 443.13 1048.49 443.13 1048.49L398.212 21.7117Z" fill="white"/>
<path fill-rule="evenodd" clip-rule="evenodd" d="M398.212 21.7117L570.493 10.83C570.493 10.83 600 9.19805 600 33.2332C600 57.2684 565.603 450.787 560.283 577.776C554.963 704.764 541.597 1035.21 541.597 1035.21C541.597 1035.21 541.079 1048.49 529.714 1048.49C518.349 1048.49 443.13 1048.49 443.13 1048.49L398.212 21.7117Z" stroke="white"/>
</mask>
<g mask="url(#mask0)">
<g filter="url(#filter0_f)">
<path d="M538.1 1035.06C538.1 1035.07 538.1 1035.07 541.597 1035.21L538.1 1035.07L538.1 1035.06ZM538.1 1035.06L538.101 1035.06L538.101 1035.05L538.103 1035.01L538.11 1034.83L538.139 1034.11L538.252 1031.32L538.685 1020.62C539.061 1011.34 539.604 997.932 540.272 981.45C541.608 948.487 543.445 903.213 545.448 853.97C549.455 755.486 554.126 641.126 556.786 577.629C559.45 514.055 569.385 383.851 578.647 266.621C580.739 240.144 582.797 214.328 584.729 190.085C587.076 160.635 589.239 133.505 591.053 110.327C594.37 67.949 596.5 39.0624 596.5 33.2332C596.5 28.0053 594.92 24.4231 592.732 21.8708C590.49 19.2547 587.404 17.4881 584.084 16.3199C580.772 15.1539 577.403 14.6469 574.823 14.4393C573.543 14.3363 572.482 14.3089 571.751 14.3068C571.386 14.3058 571.105 14.311 570.923 14.3162C570.832 14.3187 570.765 14.3213 570.725 14.323L570.691 14.3245L570.685 14.3248L570.684 14.3248L570.682 14.3249L570.681 14.325L401.859 24.9883L446.48 1044.99H446.482H446.581H446.682H446.784H446.888H446.992H447.098H447.205H447.314H447.424H447.535H447.647H447.76H447.875H447.991H448.108H448.227H448.346H448.467H448.589H448.713H448.837H448.963H449.09H449.218H449.347H449.477H449.609H449.741H449.875H450.01H450.146H450.283H450.422H450.561H450.702H450.843H450.986H451.13H451.275H451.421H451.568H451.716H451.865H452.015H452.166H452.319H452.472H452.626H452.782H452.938H453.095H453.254H453.413H453.574H453.735H453.897H454.06H454.225H454.39H454.556H454.723H454.891H455.06H455.23H455.401H455.573H455.745H455.919H456.093H456.269H456.445H456.622H456.8H456.979H457.158H457.339H457.52H457.702H457.885H458.069H458.254H458.44H458.626H458.813H459.001H459.19H459.379H459.569H459.76H459.952H460.145H460.338H460.532H460.727H460.922H461.119H461.316H461.513H461.712H461.911H462.11H462.311H462.512H462.714H462.916H463.12H463.323H463.528H463.733H463.939H464.145H464.352H464.56H464.768H464.977H465.187H465.397H465.607H465.818H466.03H466.243H466.456H466.669H466.883H467.098H467.313H467.529H467.745H467.962H468.179H468.397H468.615H468.834H469.053H469.273H469.493H469.714H469.935H470.156H470.379H470.601H470.824H471.047H471.271H471.495H471.72H471.945H472.171H472.397H472.623H472.849H473.077H473.304H473.532H473.76H473.988H474.217H474.446H474.676H474.906H475.136H475.366H475.597H475.828H476.06H476.291H476.523H476.755H476.988H477.221H477.454H477.687H477.921H478.154H478.388H478.623H478.857H479.092H479.327H479.562H479.797H480.033H480.268H480.504H480.74H480.976H481.213H481.449H481.686H481.923H482.16H482.397H482.634H482.871H483.109H483.346H483.584H483.822H484.06H484.297H484.535H484.773H485.012H485.25H485.488H485.726H485.964H486.203H486.441H486.679H486.918H487.156H487.395H487.633H487.871H488.11H488.348H488.586H488.824H489.063H489.301H489.539H489.777H490.015H490.253H490.491H490.728H490.966H491.203H491.441H491.678H491.915H492.152H492.389H492.626H492.863H493.099H493.336H493.572H493.808H494.044H494.279H494.515H494.75H494.985H495.22H495.455H495.689H495.923H496.157H496.391H496.625H496.858H497.091H497.324H497.556H497.788H498.02H498.252H498.483H498.714H498.945H499.175H499.405H499.635H499.865H500.094H500.323H500.551H500.779H501.007H501.234H501.461H501.688H501.914H502.14H502.365H502.59H502.815H503.039H503.263H503.486H503.709H503.931H504.153H504.375H504.596H504.817H505.037H505.256H505.476H505.694H505.912H506.13H506.347H506.564H506.78H506.996H507.211H507.425H507.639H507.853H508.066H508.278H508.49H508.701H508.911H509.121H509.331H509.539H509.748H509.955H510.162H510.368H510.574H510.779H510.983H511.187H511.39H511.593H511.794H511.995H512.196H512.395H512.594H512.793H512.99H513.187H513.383H513.579H513.773H513.967H514.16H514.353H514.545H514.735H514.926H515.115H515.304H515.491H515.678H515.864H516.05H516.234H516.418H516.601H516.783H516.964H517.145H517.324H517.503H517.681H517.858H518.034H518.209H518.383H518.557H518.729H518.901H519.071H519.241H519.41H519.578H519.745H519.911H520.076H520.24H520.403H520.565H520.726H520.887H521.046H521.204H521.361H521.518H521.673H521.827H521.98H522.132H522.283H522.433H522.582H522.73H522.877H523.023H523.168H523.311H523.454H523.595H523.736H523.875H524.013H524.15H524.286H524.421H524.554H524.687H524.818H524.948H525.077H525.205H525.332H525.457H525.581H525.704H525.826H525.947H526.067H526.185H526.302H526.418H526.532H526.645H526.758H526.868H526.978H527.086H527.193H527.299H527.403H527.506H527.608H527.709H527.808H527.906H528.003H528.098H528.192H528.284H528.375H528.465H528.554H528.641H528.727H528.811H528.894H528.976H529.056H529.135H529.212H529.288H529.363H529.436H529.507H529.577H529.646H529.714C533.62 1044.99 535.571 1042.89 536.746 1040.37C537.356 1039.06 537.704 1037.71 537.895 1036.66C537.989 1036.14 538.042 1035.71 538.07 1035.43C538.079 1035.34 538.086 1035.27 538.09 1035.21C538.093 1035.17 538.095 1035.14 538.097 1035.12C538.099 1035.09 538.1 1035.07 538.1 1035.06Z" stroke="url(#paint2_linear)" stroke-width="7"/>
</g>
</g>
<g filter="url(#filter1_f)">
<path fill-rule="evenodd" clip-rule="evenodd" d="M469.144 50.9497C473.531 50.9497 540.79 256.739 532.053 344.618C523.317 432.498 521.366 496.425 521.366 496.425C521.366 496.425 565.047 266.014 548.55 158.482C532.053 50.9497 464.756 50.9497 469.144 50.9497Z" fill="url(#paint3_radial)"/>
</g>
<g filter="url(#filter2_d)">
<path fill-rule="evenodd" clip-rule="evenodd" d="M409.944 32.1788C409.944 32.1788 484.744 36.2563 507.563 66.2138C530.382 96.1712 556.041 156.012 545.677 302.742C535.312 449.472 530.881 595.666 525.896 732.054C520.911 868.442 519.766 1011.62 519.766 1011.62C519.766 1011.62 521.179 1031.73 507.563 1031.73C493.948 1031.73 464.686 1031.73 464.686 1031.73L426.719 353.289L409.944 32.1788Z" fill="url(#paint4_linear)"/>
</g>
<rect x="488.88" y="539.83" width="12.743" height="34.1955" rx="0.5" fill="#3B3C44" stroke="url(#paint5_linear)"/>
<rect x="493.073" y="544.358" width="6.03352" height="26.4804" rx="1" fill="#202127"/>
<g filter="url(#filter3_f)">
<path fill-rule="evenodd" clip-rule="evenodd" d="M388.492 83.1285C388.492 83.1285 446.145 113.899 446.145 215.915C446.145 317.931 397.973 451.173 397.973 451.173L388.492 83.1285Z" fill="url(#paint6_radial)"/>
</g>
<rect x="490.891" y="599.494" width="4.02793" height="14.7542" fill="#3B3C44" stroke="url(#paint7_linear)"/>
<path fill-rule="evenodd" clip-rule="evenodd" d="M49.9598 39.4548C47.2975 42.6957 47.7739 49.2486 47.7778 55.1934C47.9154 267.508 43.127 432.262 33.4126 549.455C18.433 730.167 10.5072 893.383 3.50241 955.177C-3.50241 1016.97 3.50241 1034.54 3.50241 1034.54C3.50241 1034.54 10.6301 1052.1 77.6535 1062.23C144.677 1072.36 465.794 1054.7 465.794 1054.7C465.794 1054.7 472.626 1046.09 472.626 1010.9C472.626 975.707 456.596 631.768 450.651 506.459C444.706 381.15 424.153 122.198 420.42 70.1709C416.687 18.144 412.507 0 389.919 0C375.249 0 266.637 11.7819 64.0822 35.3458C58.7059 35.9712 52.6221 36.214 49.9598 39.4548Z" fill="url(#paint8_radial)"/>
<path fill-rule="evenodd" clip-rule="evenodd" d="M49.9598 39.4548C47.2975 42.6957 47.7739 49.2486 47.7778 55.1934C47.9154 267.508 43.127 432.262 33.4126 549.455C18.433 730.167 10.5072 893.383 3.50241 955.177C-3.50241 1016.97 3.50241 1034.54 3.50241 1034.54C3.50241 1034.54 10.6301 1052.1 77.6535 1062.23C144.677 1072.36 465.794 1054.7 465.794 1054.7C465.794 1054.7 472.626 1046.09 472.626 1010.9C472.626 975.707 456.596 631.768 450.651 506.459C444.706 381.15 424.153 122.198 420.42 70.1709C416.687 18.144 412.507 0 389.919 0C375.249 0 266.637 11.7819 64.0822 35.3458C58.7059 35.9712 52.6221 36.214 49.9598 39.4548Z" fill="url(#paint9_linear)"/>
<mask id="mask1" mask-type="alpha" maskUnits="userSpaceOnUse" x="0" y="0" width="473" height="1066">
<path fill-rule="evenodd" clip-rule="evenodd" d="M49.9598 39.4548C47.2975 42.6957 47.7739 49.2486 47.7778 55.1934C47.9154 267.508 43.127 432.262 33.4126 549.455C18.433 730.167 10.5072 893.383 3.50241 955.177C-3.50241 1016.97 3.50241 1034.54 3.50241 1034.54C3.50241 1034.54 10.6301 1052.1 77.6535 1062.23C144.677 1072.36 465.794 1054.7 465.794 1054.7C465.794 1054.7 472.626 1046.09 472.626 1010.9C472.626 975.707 456.596 631.768 450.651 506.459C444.706 381.15 424.153 122.198 420.42 70.1709C416.687 18.144 412.507 0 389.919 0C375.249 0 266.637 11.7819 64.0822 35.3458C58.7059 35.9712 52.6221 36.214 49.9598 39.4548Z" fill="white"/>
<path fill-rule="evenodd" clip-rule="evenodd" d="M49.9598 39.4548C47.2975 42.6957 47.7739 49.2486 47.7778 55.1934C47.9154 267.508 43.127 432.262 33.4126 549.455C18.433 730.167 10.5072 893.383 3.50241 955.177C-3.50241 1016.97 3.50241 1034.54 3.50241 1034.54C3.50241 1034.54 10.6301 1052.1 77.6535 1062.23C144.677 1072.36 465.794 1054.7 465.794 1054.7C465.794 1054.7 472.626 1046.09 472.626 1010.9C472.626 975.707 456.596 631.768 450.651 506.459C444.706 381.15 424.153 122.198 420.42 70.1709C416.687 18.144 412.507 0 389.919 0C375.249 0 266.637 11.7819 64.0822 35.3458C58.7059 35.9712 52.6221 36.214 49.9598 39.4548Z" stroke="white"/>
</mask>
<g mask="url(#mask1)">
<g filter="url(#filter4_f)">
<path d="M6.7281 1033.16C6.69521 1033.07 6.64145 1032.9 6.57122 1032.67C6.42192 1032.16 6.19842 1031.33 5.94299 1030.11C5.43192 1027.67 4.79451 1023.7 4.3665 1017.78C3.51008 1005.93 3.49568 986.31 6.98014 955.571C10.4666 924.815 14.1873 868.881 18.888 798.214C23.6362 726.833 29.3842 640.422 36.9007 549.744C46.6271 432.406 51.4154 267.539 51.2778 55.1912C51.2772 54.3247 51.2681 53.4829 51.2592 52.6638C51.2356 50.4876 51.2138 48.4715 51.3588 46.5771C51.5632 43.9056 52.0624 42.4091 52.6642 41.6765C53.2157 41.0052 54.4075 40.3434 56.7401 39.8411C58.4617 39.4703 60.3156 39.2732 62.3502 39.0568C63.0409 38.9834 63.7524 38.9077 64.4867 38.8223C165.761 27.0407 243.542 18.2055 297.835 12.316C352.28 6.40995 382.829 3.5 389.919 3.5C395.1 3.5 398.829 4.53758 401.695 6.52443C404.571 8.51815 406.974 11.7412 408.982 16.8547C413.084 27.2998 415.052 44.2639 416.929 70.4214C417.671 80.766 419.076 99.2631 420.898 123.248C428.251 220.05 442.393 406.243 447.155 506.625C453.104 632.02 469.126 975.817 469.126 1010.9C469.126 1028.28 467.437 1038.92 465.823 1045.11C465.018 1048.2 464.234 1050.17 463.698 1051.31L461.984 1051.4C459.617 1051.52 456.137 1051.71 451.683 1051.94C442.776 1052.4 429.975 1053.05 414.404 1053.8C383.261 1055.3 341.043 1057.19 296.733 1058.76C252.419 1060.34 206.035 1061.59 166.555 1061.83C126.972 1062.06 94.6147 1061.25 78.1765 1058.77C44.9064 1053.74 26.8143 1046.91 17.147 1041.53C12.3258 1038.84 9.63527 1036.54 8.20044 1035.03C7.48323 1034.27 7.0768 1033.71 6.8722 1033.4C6.80273 1033.29 6.75607 1033.21 6.7281 1033.16Z" stroke="url(#paint10_linear)" stroke-width="7"/>
</g>
</g>
<path fill-rule="evenodd" clip-rule="evenodd" d="M90.9339 111.088C90.9339 111.088 90.9339 98.8407 90.9339 94.0539C90.9339 89.2671 84.7143 90.0395 84.7143 90.0395V135.316L98.1547 124.084L96.0424 120.331L88.6417 124.084V120.331C88.6417 120.331 98.5665 112.248 101.906 118.166C105.245 124.084 101.906 126.838 101.906 126.838L84.7143 139.777H80.1117V83.1346C80.1117 83.1346 87.6447 82.9475 91.8436 88.5007C96.0424 94.0539 94.2997 108.399 94.2997 108.399L90.9339 111.088Z" fill="#CED1DE"/>
<path fill-rule="evenodd" clip-rule="evenodd" d="M76.4246 121.341C76.4246 121.341 67.7095 126.43 67.7095 131.228C67.7095 136.027 76.4246 136.089 76.4246 136.089V131.228C76.4246 131.228 72.067 131.873 72.067 128.715C72.067 125.557 76.4246 125.1 76.4246 125.1V121.341Z" fill="#CED1DE"/>
<path fill-rule="evenodd" clip-rule="evenodd" d="M25.4749 1042.46C25.4749 1042.46 41.6203 1058.21 83.6151 1058.21C125.61 1058.21 104.631 1048.33 104.631 1048.33L25.4749 1042.46Z" fill="#212329"/>
<path fill-rule="evenodd" clip-rule="evenodd" d="M73.3428 1031.73C73.3428 1031.73 70.6539 1041.96 66.6798 1055.73C62.7057 1069.51 66.6798 1077.63 66.6798 1077.63C66.6798 1077.63 265.337 1083.69 335.418 1083.69C405.499 1083.69 456.255 1080.57 456.255 1080.57C456.255 1080.57 470.653 1077.63 469.527 1064.94C468.402 1052.26 469.674 1048.21 456.255 1048.21C442.835 1048.21 297.32 1048.21 297.32 1048.21L294.296 1041.73C294.296 1041.73 134.753 1031.73 107.568 1031.73C80.3829 1031.73 73.3428 1031.73 73.3428 1031.73Z" fill="url(#paint11_linear)"/>
<defs>
<filter id="filter0_f" x="387.339" y="-0.0664349" width="223.534" height="1059.43" filterUnits="userSpaceOnUse" color-interpolation-filters="sRGB">
<feFlood flood-opacity="0" result="BackgroundImageFix"/>
<feBlend mode="normal" in="SourceGraphic" in2="BackgroundImageFix" result="shape"/>
<feGaussianBlur stdDeviation="5.43656" result="effect1_foregroundBlur"/>
</filter>
<filter id="filter1_f" x="449.911" y="31.9217" width="121.39" height="483.531" filterUnits="userSpaceOnUse" color-interpolation-filters="sRGB">
<feFlood flood-opacity="0" result="BackgroundImageFix"/>
<feBlend mode="normal" in="SourceGraphic" in2="BackgroundImageFix" result="shape"/>
<feGaussianBlur stdDeviation="9.51399" result="effect1_foregroundBlur"/>
</filter>
<filter id="filter2_d" x="407.944" y="31.1788" width="148.101" height="1009.55" filterUnits="userSpaceOnUse" color-interpolation-filters="sRGB">
<feFlood flood-opacity="0" result="BackgroundImageFix"/>
<feColorMatrix in="SourceAlpha" type="matrix" values="0 0 0 0 0 0 0 0 0 0 0 0 0 0 0 0 0 0 127 0"/>
<feOffset dx="3" dy="4"/>
<feGaussianBlur stdDeviation="2.5"/>
<feColorMatrix type="matrix" values="0 0 0 0 0 0 0 0 0 0 0 0 0 0 0 0 0 0 0.451267 0"/>
<feBlend mode="normal" in2="BackgroundImageFix" result="effect1_dropShadow"/>
<feBlend mode="normal" in="SourceGraphic" in2="effect1_dropShadow" result="shape"/>
</filter>
<filter id="filter3_f" x="364.027" y="58.664" width="106.583" height="416.974" filterUnits="userSpaceOnUse" color-interpolation-filters="sRGB">
<feFlood flood-opacity="0" result="BackgroundImageFix"/>
<feBlend mode="normal" in="SourceGraphic" in2="BackgroundImageFix" result="shape"/>
<feGaussianBlur stdDeviation="12.2323" result="effect1_foregroundBlur"/>
</filter>
<filter id="filter4_f" x="-10.484" y="-10.8731" width="493.983" height="1087.11" filterUnits="userSpaceOnUse" color-interpolation-filters="sRGB">
<feFlood flood-opacity="0" result="BackgroundImageFix"/>
<feBlend mode="normal" in="SourceGraphic" in2="BackgroundImageFix" result="shape"/>
<feGaussianBlur stdDeviation="5.43656" result="effect1_foregroundBlur"/>
</filter>
<radialGradient id="paint0_radial" cx="0" cy="0" r="1" gradientUnits="userSpaceOnUse" gradientTransform="translate(489.495 158.366) rotate(90.3328) scale(851.806 165.771)">
<stop stop-color="#F4F6FE"/>
<stop offset="0.353093" stop-color="#DEDFE9"/>
<stop offset="0.758552" stop-color="#EFF0F5"/>
<stop offset="1" stop-color="#D2D4E0"/>
</radialGradient>
<linearGradient id="paint1_linear" x1="494.147" y1="997.486" x2="494.147" y2="1048.49" gradientUnits="userSpaceOnUse">
<stop stop-color="white" stop-opacity="0.5"/>
<stop offset="1" stop-opacity="0.135927"/>
</linearGradient>
<linearGradient id="paint2_linear" x1="399.043" y1="10.7263" x2="399.043" y2="1039.95" gradientUnits="userSpaceOnUse">
<stop stop-color="white"/>
<stop offset="0.519215" stop-color="white"/>
<stop offset="1" stop-color="white"/>
</linearGradient>
<radialGradient id="paint3_radial" cx="0" cy="0" r="1" gradientUnits="userSpaceOnUse" gradientTransform="translate(468.939 195.514) rotate(14.4955) scale(156.605 779.095)">
<stop stop-color="#142CB5"/>
<stop offset="1" stop-color="#4757FF"/>
</radialGradient>
<linearGradient id="paint4_linear" x1="409.944" y1="32.1788" x2="409.944" y2="1031.73" gradientUnits="userSpaceOnUse">
<stop stop-color="#1C202C"/>
<stop offset="0.0272463" stop-color="#83858F"/>
<stop offset="0.0859356" stop-color="#55555E"/>
<stop offset="0.130224" stop-color="#14191D"/>
<stop offset="0.842219" stop-color="#1D1A1E"/>
<stop offset="0.975454" stop-color="#36373E"/>
<stop offset="1" stop-color="#0F1012"/>
</linearGradient>
<linearGradient id="paint5_linear" x1="488.38" y1="539.33" x2="488.38" y2="574.525" gradientUnits="userSpaceOnUse">
<stop stop-color="#2B2B32"/>
<stop offset="1" stop-color="#374652"/>
</linearGradient>
<radialGradient id="paint6_radial" cx="0" cy="0" r="1" gradientUnits="userSpaceOnUse" gradientTransform="translate(388.492 202.565) rotate(17.3124) scale(108.829 634.721)">
<stop stop-color="#142CB5"/>
<stop offset="1" stop-color="#4757FF"/>
</radialGradient>
<linearGradient id="paint7_linear" x1="490.391" y1="598.994" x2="490.391" y2="614.749" gradientUnits="userSpaceOnUse">
<stop stop-color="#2B2B32"/>
<stop offset="1" stop-color="#374652"/>
</linearGradient>
<radialGradient id="paint8_radial" cx="0" cy="0" r="1" gradientUnits="userSpaceOnUse" gradientTransform="translate(213.802 151.645) rotate(90.7589) scale(874.979 388.241)">
<stop stop-color="#F4F6FE"/>
<stop offset="0.353093" stop-color="#DEDFE9"/>
<stop offset="0.758552" stop-color="#EFF0F5"/>
<stop offset="1" stop-color="#D2D4E0"/>
</radialGradient>
<linearGradient id="paint9_linear" x1="215.019" y1="941.864" x2="215.019" y2="1037.91" gradientUnits="userSpaceOnUse">
<stop stop-color="white" stop-opacity="0.01"/>
<stop offset="1" stop-color="#BBBCC8"/>
</linearGradient>
<linearGradient id="paint10_linear" x1="1.94599" y1="0" x2="1.94599" y2="1057.14" gradientUnits="userSpaceOnUse">
<stop stop-color="white"/>
<stop offset="0.519215" stop-color="white"/>
<stop offset="1" stop-color="white"/>
</linearGradient>
<linearGradient id="paint11_linear" x1="103.609" y1="1070.74" x2="306.642" y2="1070.74" gradientUnits="userSpaceOnUse">
<stop stop-color="#464853"/>
<stop offset="0.174891" stop-color="#1C1E25"/>
<stop offset="0.501845" stop-color="#2C2E39"/>
<stop offset="0.917136" stop-color="#262A33"/>
<stop offset="1" stop-color="#070B16"/>
</linearGradient>
</defs>
</svg>
