<?xml version="1.0" encoding="utf-8"?>
<!-- Generator: Adobe Illustrator 15.0.0, SVG Export Plug-In . SVG Version: 6.00 Build 0)  -->
<!DOCTYPE svg PUBLIC "-//W3C//DTD SVG 1.1//EN" "http://www.w3.org/Graphics/SVG/1.1/DTD/svg11.dtd">
<svg version="1.1" id="Layer_1" xmlns="http://www.w3.org/2000/svg" xmlns:xlink="http://www.w3.org/1999/xlink" x="0px" y="0px"
	 width="610.949px" height="208.208px" viewBox="0 0 610.949 208.208" enable-background="new 0 0 610.949 208.208"
	 xml:space="preserve">
<g>
	<path fill="#FFFFFF" d="M151.839,162.579c-6.633,6.713-13.226,13.448-19.888,20.114c-8.039,8.041-16.208,15.954-24.154,24.087
		c-1.884,1.93-2.794,1.879-4.675,0.002c-25.854-25.775-51.797-51.457-77.718-77.164c-4.165-4.129-8.231-8.365-12.533-12.346
		c-1.834-1.697-1.529-2.544,0.181-4.033C31.755,96.932,53.186,85.92,77.55,81.396c44.79-8.32,84.855,2.153,119.864,31.539
		c2.174,1.823,2.276,2.763,0.156,4.76c-15.5,14.606-31.909,27.845-52.126,35.489c-19.292,7.296-38.614,6.979-57.824-0.217
		c-7.763-2.906-14.354-7.612-19.088-14.582c-7.183-10.573-6.162-23.666,2.684-32.932c7.883-8.256,17.981-12.01,29.013-13.489
		c8.146-1.091,16.241-0.661,24.082,2.098c4.586,1.614,8.655,4.053,11.763,7.887c5.788,7.146,5.056,16.57-2.106,22.354
		c-8.725,7.047-18.767,9.104-29.688,6.667c-3.575-0.799-6.635-2.568-9.09-5.396c-2.306-2.654-5.328-3.045-7.561-1.195
		c-2.375,1.969-2.411,5.088,0.018,7.918c4.428,5.154,10.312,7.683,16.816,8.787c13.262,2.252,25.821,0.26,36.978-7.51
		c14.858-10.348,15.153-27.779,0.779-38.832c-9.322-7.166-20.272-9.337-31.721-9.541c-15.719-0.28-30.423,3.253-43.263,12.651
		c-20.793,15.216-21.103,40.588-0.812,56.491c10.269,8.052,22.207,11.91,34.958,13.675c16.677,2.306,32.908,0.485,48.719-5.242
		C150.644,162.581,151.154,162.176,151.839,162.579"/>
	<path fill="#FFFFFF" d="M4.027,108.066c-1.667-0.755-2.758-2.071-3.729-3.358c-0.94-1.249,0.582-1.872,1.257-2.543
		c28.944-28.749,57.908-57.482,86.885-86.2c4.926-4.884,10.055-9.574,14.813-14.613c2.044-2.165,3.009-1.462,4.712,0.241
		c19.373,19.376,38.803,38.695,58.249,57.997c14.18,14.073,28.414,28.092,42.599,42.161c1.067,1.056,3.068,1.975,0.865,3.924
		c-1.577,1.398-2.472,3.123-5.153,1.017c-21.495-16.88-45.896-27.434-72.807-31.769c-31.663-5.1-62.36-1.273-91.836,11.583
		C27.765,91.79,16.526,98.548,6.086,106.648C5.435,107.154,4.728,107.586,4.027,108.066"/>
</g>
<g>
	<path fill="#FFFFFF" d="M286.096,79.854c0,0.778-0.034,1.426-0.102,1.948c-0.066,0.524-0.166,0.946-0.301,1.268
		c-0.135,0.322-0.301,0.555-0.503,0.702c-0.2,0.148-0.42,0.222-0.663,0.222h-26.12c-0.883,0-1.626-0.262-2.229-0.784
		s-0.904-1.372-0.904-2.551V35.33c0-1.179,0.301-2.029,0.904-2.553c0.603-0.521,1.347-0.782,2.229-0.782h25.96
		c0.241,0,0.455,0.067,0.643,0.202c0.188,0.133,0.347,0.368,0.482,0.702c0.133,0.335,0.235,0.763,0.302,1.287
		c0.066,0.521,0.099,1.185,0.099,1.989c0,0.751-0.033,1.387-0.099,1.908c-0.067,0.523-0.169,0.946-0.302,1.268
		c-0.135,0.321-0.294,0.555-0.482,0.703c-0.188,0.146-0.402,0.22-0.643,0.22h-18.565V52.97h15.711c0.241,0,0.462,0.075,0.664,0.221
		c0.199,0.148,0.367,0.375,0.501,0.684c0.133,0.308,0.235,0.723,0.302,1.245c0.066,0.524,0.1,1.16,0.1,1.909
		c0,0.778-0.034,1.422-0.1,1.929c-0.067,0.509-0.169,0.918-0.302,1.225c-0.135,0.309-0.302,0.53-0.501,0.663
		c-0.202,0.135-0.423,0.202-0.664,0.202h-15.711v14.667h18.725c0.243,0,0.463,0.073,0.663,0.22c0.202,0.148,0.368,0.383,0.503,0.705
		c0.135,0.322,0.235,0.742,0.301,1.266C286.062,78.427,286.096,79.078,286.096,79.854"/>
	<path fill="#FFFFFF" d="M329.053,82.627c0,0.268-0.079,0.502-0.24,0.703c-0.16,0.201-0.431,0.37-0.805,0.501
		c-0.375,0.135-0.892,0.237-1.547,0.303c-0.657,0.067-1.468,0.1-2.432,0.1c-0.99,0-1.815-0.033-2.473-0.1
		c-0.654-0.066-1.172-0.168-1.548-0.303c-0.375-0.131-0.642-0.3-0.803-0.501c-0.16-0.201-0.241-0.436-0.241-0.703V62.174
		c0-1.742-0.127-3.108-0.382-4.098c-0.254-0.992-0.622-1.844-1.104-2.553c-0.48-0.709-1.104-1.259-1.867-1.647
		c-0.765-0.389-1.655-0.584-2.674-0.584c-1.286,0-2.586,0.47-3.897,1.408c-1.313,0.938-2.68,2.304-4.098,4.099v23.829
		c0,0.268-0.081,0.502-0.241,0.703c-0.162,0.201-0.436,0.37-0.824,0.501c-0.388,0.135-0.904,0.237-1.547,0.303
		c-0.642,0.067-1.46,0.1-2.451,0.1c-0.991,0-1.808-0.033-2.451-0.1c-0.644-0.066-1.158-0.168-1.547-0.303
		c-0.388-0.131-0.663-0.3-0.823-0.501c-0.162-0.201-0.242-0.436-0.242-0.703V46.783c0-0.268,0.067-0.503,0.202-0.703
		c0.133-0.202,0.374-0.368,0.723-0.503c0.347-0.133,0.797-0.233,1.347-0.301c0.55-0.068,1.239-0.102,2.069-0.102
		c0.857,0,1.567,0.034,2.129,0.102s0.998,0.167,1.306,0.301c0.308,0.135,0.528,0.301,0.663,0.503c0.133,0.2,0.2,0.435,0.2,0.703
		v4.139c1.983-2.143,4-3.751,6.048-4.821c2.05-1.071,4.187-1.608,6.409-1.608c2.438,0,4.494,0.402,6.169,1.206
		c1.673,0.804,3.027,1.896,4.058,3.275c1.031,1.378,1.775,2.994,2.23,4.842c0.456,1.848,0.684,4.073,0.684,6.67V82.627"/>
	<path fill="#FFFFFF" d="M371.287,49.274c0,1.286-0.147,2.237-0.441,2.854s-0.658,0.923-1.086,0.923h-4.218
		c0.589,0.644,1.011,1.374,1.266,2.19c0.255,0.817,0.382,1.667,0.382,2.551c0,2.09-0.349,3.946-1.046,5.566
		c-0.695,1.621-1.692,2.987-2.994,4.099c-1.3,1.112-2.865,1.956-4.699,2.53c-1.836,0.578-3.879,0.866-6.129,0.866
		c-1.151,0-2.251-0.142-3.295-0.423c-1.046-0.281-1.85-0.609-2.411-0.984c-0.321,0.35-0.61,0.764-0.864,1.246
		c-0.253,0.482-0.381,1.019-0.381,1.607c0,0.778,0.34,1.414,1.022,1.909c0.684,0.495,1.643,0.769,2.873,0.824l8.722,0.32
		c2.036,0.081,3.851,0.37,5.444,0.865c1.595,0.496,2.934,1.191,4.019,2.089c1.085,0.897,1.917,1.975,2.491,3.235
		c0.575,1.26,0.864,2.692,0.864,4.299c0,1.769-0.389,3.436-1.166,5.004c-0.775,1.566-1.942,2.927-3.496,4.079
		c-1.554,1.15-3.502,2.062-5.847,2.732c-2.343,0.668-5.083,1.005-8.218,1.005c-3.054,0-5.659-0.243-7.817-0.724
		c-2.153-0.482-3.923-1.152-5.304-2.01c-1.379-0.857-2.383-1.881-3.013-3.074c-0.631-1.192-0.944-2.499-0.944-3.917
		c0-0.884,0.114-1.73,0.34-2.534c0.229-0.803,0.562-1.574,1.006-2.31c0.441-0.736,0.984-1.439,1.628-2.11
		c0.645-0.669,1.381-1.312,2.21-1.929c-1.151-0.615-2.044-1.453-2.672-2.512c-0.629-1.058-0.943-2.215-0.943-3.475
		c0-1.582,0.361-3.021,1.085-4.321c0.724-1.299,1.66-2.471,2.812-3.515c-0.938-0.937-1.688-2.062-2.25-3.375
		c-0.562-1.312-0.844-2.946-0.844-4.902c0-2.09,0.367-3.959,1.104-5.606c0.738-1.647,1.764-3.041,3.075-4.179
		c1.312-1.138,2.881-2.008,4.701-2.613c1.821-0.602,3.831-0.902,6.029-0.902c1.125,0,2.202,0.067,3.232,0.201
		c1.031,0.134,1.99,0.32,2.874,0.562h11.371c0.456,0,0.824,0.295,1.105,0.883C371.146,46.89,371.287,47.881,371.287,49.274
		 M360.678,86.365c0-1.206-0.481-2.131-1.446-2.774c-0.965-0.642-2.289-0.99-3.979-1.044l-7.194-0.2
		c-0.694,0.508-1.252,0.998-1.667,1.466c-0.413,0.468-0.749,0.917-1.005,1.347c-0.255,0.428-0.421,0.844-0.502,1.245
		c-0.079,0.403-0.121,0.817-0.121,1.247c0,1.339,0.678,2.357,2.031,3.054c1.354,0.696,3.26,1.044,5.727,1.044
		c1.525,0,2.812-0.154,3.857-0.462c1.044-0.307,1.888-0.717,2.53-1.224c0.643-0.51,1.1-1.079,1.366-1.708
		C360.543,87.724,360.678,87.061,360.678,86.365z M358.308,57.754c0-1.929-0.536-3.43-1.606-4.501
		c-1.073-1.072-2.587-1.607-4.541-1.607c-0.991,0-1.861,0.167-2.611,0.501c-0.751,0.335-1.374,0.79-1.869,1.366
		c-0.497,0.576-0.863,1.247-1.104,2.01s-0.362,1.561-0.362,2.391c0,1.822,0.536,3.262,1.607,4.32
		c1.07,1.058,2.559,1.586,4.462,1.586c1.016,0,1.899-0.16,2.65-0.482c0.75-0.321,1.372-0.763,1.867-1.326
		c0.497-0.562,0.871-1.212,1.125-1.948C358.18,59.326,358.308,58.557,358.308,57.754z"/>
	<path fill="#FFFFFF" d="M412.236,82.627c0,0.268-0.081,0.502-0.241,0.703s-0.43,0.37-0.804,0.501
		c-0.375,0.135-0.893,0.237-1.547,0.303c-0.657,0.067-1.469,0.1-2.433,0.1c-0.99,0-1.815-0.033-2.472-0.1
		c-0.655-0.066-1.172-0.168-1.548-0.303c-0.375-0.131-0.644-0.3-0.804-0.501s-0.24-0.436-0.24-0.703V62.174
		c0-1.742-0.127-3.108-0.383-4.098c-0.254-0.992-0.621-1.844-1.104-2.553s-1.105-1.259-1.868-1.647
		c-0.764-0.389-1.655-0.584-2.673-0.584c-1.287,0-2.586,0.47-3.897,1.408c-1.313,0.938-2.681,2.304-4.099,4.099v23.829
		c0,0.268-0.081,0.502-0.241,0.703c-0.161,0.201-0.436,0.37-0.824,0.501c-0.39,0.135-0.904,0.237-1.548,0.303
		c-0.643,0.067-1.46,0.1-2.449,0.1c-0.992,0-1.811-0.033-2.453-0.1c-0.643-0.066-1.158-0.168-1.547-0.303
		c-0.389-0.131-0.661-0.3-0.823-0.501c-0.16-0.201-0.241-0.436-0.241-0.703V29.784c0-0.266,0.081-0.509,0.241-0.723
		c0.162-0.215,0.436-0.396,0.823-0.543c0.389-0.147,0.904-0.26,1.547-0.341c0.644-0.081,1.461-0.121,2.453-0.121
		c0.989,0,1.808,0.041,2.449,0.121c0.644,0.081,1.158,0.194,1.548,0.341c0.39,0.146,0.663,0.328,0.824,0.543
		c0.16,0.214,0.241,0.457,0.241,0.723v19.812c1.74-1.715,3.515-2.994,5.323-3.838c1.808-0.844,3.689-1.266,5.646-1.266
		c2.438,0,4.494,0.402,6.169,1.206c1.673,0.804,3.025,1.903,4.06,3.295c1.029,1.393,1.771,3.021,2.229,4.883
		c0.456,1.861,0.685,4.119,0.685,6.771L412.236,82.627"/>
	<path fill="#FFFFFF" d="M458.408,64.344c0,3.054-0.402,5.84-1.206,8.358c-0.804,2.518-2.022,4.688-3.657,6.511
		c-1.634,1.821-3.682,3.228-6.148,4.218c-2.464,0.991-5.343,1.487-8.638,1.487c-3.188,0-5.963-0.443-8.319-1.327
		c-2.356-0.884-4.313-2.169-5.866-3.857c-1.555-1.688-2.706-3.762-3.455-6.228c-0.75-2.465-1.126-5.278-1.126-8.439
		c0-3.054,0.409-5.848,1.226-8.378c0.817-2.533,2.043-4.703,3.677-6.511c1.635-1.809,3.678-3.207,6.13-4.199
		c2.448-0.992,5.323-1.487,8.619-1.487c3.216,0,5.999,0.436,8.357,1.305c2.358,0.873,4.305,2.152,5.848,3.84
		c1.54,1.688,2.687,3.765,3.437,6.228C458.033,58.329,458.408,61.155,458.408,64.344 M448,64.746c0-1.769-0.141-3.396-0.422-4.884
		c-0.281-1.486-0.757-2.779-1.426-3.877c-0.671-1.098-1.562-1.956-2.674-2.572c-1.11-0.617-2.513-0.925-4.199-0.925
		c-1.501,0-2.813,0.275-3.938,0.824c-1.124,0.549-2.049,1.353-2.771,2.411c-0.724,1.058-1.268,2.332-1.628,3.817
		c-0.361,1.487-0.541,3.183-0.541,5.084c0,1.767,0.145,3.395,0.44,4.881c0.295,1.487,0.77,2.782,1.426,3.878
		c0.657,1.099,1.548,1.95,2.674,2.551c1.125,0.603,2.518,0.905,4.179,0.905c1.526,0,2.854-0.275,3.979-0.824
		c1.126-0.548,2.05-1.347,2.773-2.391c0.723-1.044,1.258-2.311,1.606-3.798C447.825,68.342,448,66.648,448,64.746z"/>
	<path fill="#FFFFFF" d="M500.401,82.627c0,0.268-0.067,0.502-0.202,0.703c-0.133,0.201-0.368,0.37-0.703,0.501
		c-0.334,0.135-0.776,0.237-1.324,0.303c-0.549,0.067-1.239,0.1-2.068,0.1c-0.887,0-1.603-0.033-2.151-0.1
		c-0.55-0.066-0.985-0.168-1.308-0.303c-0.319-0.131-0.548-0.3-0.683-0.501s-0.199-0.436-0.199-0.703v-4.139
		c-1.982,2.145-3.999,3.751-6.048,4.823c-2.052,1.071-4.175,1.607-6.37,1.607c-2.466,0-4.535-0.402-6.209-1.206
		c-1.675-0.803-3.026-1.902-4.059-3.295c-1.031-1.392-1.768-3.007-2.21-4.842c-0.441-1.836-0.663-4.12-0.663-6.852v-21.94
		c0-0.268,0.073-0.503,0.222-0.703c0.146-0.202,0.414-0.368,0.805-0.503c0.388-0.133,0.908-0.233,1.565-0.301
		c0.655-0.067,1.467-0.102,2.432-0.102c0.99,0,1.809,0.034,2.451,0.102c0.643,0.067,1.158,0.167,1.547,0.301
		c0.391,0.135,0.663,0.301,0.824,0.503c0.16,0.2,0.241,0.435,0.241,0.703v20.253c0,1.876,0.12,3.31,0.362,4.3
		c0.238,0.991,0.606,1.84,1.104,2.551c0.495,0.711,1.125,1.26,1.888,1.647c0.766,0.388,1.653,0.582,2.674,0.582
		c1.284,0,2.578-0.467,3.878-1.405s2.687-2.305,4.159-4.1V46.783c0-0.268,0.072-0.503,0.221-0.703
		c0.146-0.202,0.415-0.368,0.804-0.503c0.388-0.133,0.904-0.233,1.548-0.301c0.644-0.067,1.459-0.102,2.45-0.102
		c0.992,0,1.81,0.034,2.451,0.102c0.644,0.067,1.151,0.167,1.528,0.301c0.375,0.135,0.642,0.301,0.803,0.503
		c0.16,0.2,0.241,0.435,0.241,0.703V82.627"/>
	<path fill="#FFFFFF" d="M535.803,72.5c0,2.038-0.382,3.832-1.146,5.385c-0.764,1.555-1.842,2.854-3.234,3.898
		c-1.394,1.046-3.041,1.829-4.942,2.351c-1.902,0.522-3.966,0.784-6.188,0.784c-1.341,0-2.618-0.1-3.838-0.302
		c-1.22-0.2-2.312-0.455-3.275-0.763c-0.964-0.309-1.769-0.623-2.41-0.944c-0.644-0.322-1.109-0.624-1.406-0.904
		c-0.296-0.283-0.522-0.724-0.685-1.327c-0.16-0.602-0.239-1.492-0.239-2.671c0-0.778,0.026-1.4,0.079-1.869
		c0.055-0.47,0.136-0.845,0.242-1.125c0.106-0.283,0.239-0.47,0.399-0.563c0.162-0.094,0.363-0.141,0.604-0.141
		c0.295,0,0.729,0.168,1.308,0.501c0.575,0.336,1.291,0.705,2.147,1.105c0.859,0.403,1.855,0.778,2.994,1.125
		c1.139,0.349,2.431,0.522,3.877,0.522c0.913,0,1.723-0.094,2.432-0.281c0.712-0.188,1.327-0.455,1.851-0.803
		c0.521-0.347,0.917-0.79,1.186-1.326c0.269-0.536,0.402-1.152,0.402-1.85c0-0.804-0.249-1.494-0.744-2.069
		c-0.496-0.575-1.153-1.078-1.969-1.505c-0.817-0.428-1.742-0.831-2.772-1.206s-2.089-0.79-3.176-1.247
		c-1.085-0.455-2.144-0.977-3.174-1.566c-1.032-0.588-1.957-1.312-2.773-2.17c-0.816-0.857-1.473-1.89-1.968-3.094
		c-0.497-1.206-0.744-2.653-0.744-4.341c0-1.713,0.334-3.288,1.004-4.721c0.671-1.434,1.637-2.657,2.894-3.676
		c1.26-1.019,2.795-1.809,4.603-2.372c1.811-0.562,3.838-0.844,6.089-0.844c1.125,0,2.216,0.081,3.274,0.243
		c1.058,0.16,2.015,0.36,2.872,0.601c0.858,0.241,1.582,0.503,2.17,0.783c0.59,0.283,1.012,0.524,1.267,0.724
		c0.254,0.202,0.436,0.401,0.543,0.603c0.107,0.201,0.188,0.441,0.24,0.723c0.055,0.281,0.102,0.63,0.141,1.046
		c0.041,0.415,0.062,0.931,0.062,1.547c0,0.723-0.021,1.312-0.062,1.77c-0.039,0.455-0.106,0.814-0.199,1.083
		c-0.095,0.27-0.223,0.449-0.383,0.542c-0.16,0.096-0.349,0.142-0.562,0.142c-0.24,0-0.616-0.142-1.125-0.422
		c-0.509-0.283-1.146-0.584-1.909-0.905c-0.764-0.32-1.646-0.623-2.65-0.904c-1.007-0.282-2.152-0.421-3.438-0.421
		c-0.91,0-1.701,0.093-2.37,0.28c-0.669,0.189-1.218,0.457-1.648,0.804c-0.429,0.35-0.748,0.757-0.963,1.227
		c-0.215,0.468-0.322,0.971-0.322,1.505c0,0.832,0.256,1.528,0.765,2.09c0.509,0.562,1.18,1.06,2.01,1.487
		c0.829,0.428,1.773,0.831,2.833,1.206c1.059,0.375,2.129,0.783,3.216,1.224c1.084,0.443,2.154,0.959,3.215,1.547
		c1.058,0.591,2.002,1.313,2.834,2.171c0.829,0.857,1.499,1.881,2.006,3.074C535.548,69.454,535.803,70.866,535.803,72.5"/>
	<path fill="#FFFFFF" d="M576.51,63.66c0,1.233-0.272,2.145-0.824,2.732c-0.549,0.591-1.305,0.884-2.269,0.884h-21.821
		c0,1.526,0.183,2.914,0.542,4.158c0.362,1.247,0.938,2.305,1.729,3.175c0.79,0.871,1.808,1.535,3.054,1.989
		c1.245,0.457,2.74,0.684,4.481,0.684c1.768,0,3.319-0.125,4.661-0.381c1.339-0.254,2.497-0.536,3.477-0.844
		c0.978-0.309,1.788-0.588,2.431-0.844c0.645-0.254,1.165-0.381,1.567-0.381c0.24,0,0.441,0.046,0.603,0.141
		c0.16,0.094,0.296,0.26,0.402,0.502c0.106,0.241,0.18,0.583,0.221,1.024c0.04,0.443,0.061,1,0.061,1.668
		c0,0.59-0.012,1.093-0.041,1.507c-0.026,0.415-0.065,0.771-0.119,1.065c-0.054,0.294-0.135,0.542-0.241,0.742
		c-0.106,0.202-0.248,0.396-0.422,0.584c-0.175,0.188-0.648,0.443-1.428,0.764c-0.776,0.32-1.768,0.635-2.974,0.943
		c-1.205,0.308-2.584,0.576-4.141,0.805c-1.553,0.228-3.214,0.341-4.981,0.341c-3.187,0-5.981-0.402-8.378-1.206
		c-2.397-0.803-4.399-2.021-6.008-3.657c-1.605-1.634-2.807-3.697-3.597-6.189c-0.79-2.491-1.186-5.411-1.186-8.759
		c0-3.188,0.415-6.062,1.245-8.621c0.831-2.557,2.035-4.727,3.615-6.511c1.582-1.78,3.503-3.139,5.769-4.077
		c2.264-0.937,4.813-1.407,7.655-1.407c2.999,0,5.563,0.441,7.694,1.326c2.129,0.884,3.879,2.11,5.243,3.677
		c1.367,1.568,2.372,3.423,3.015,5.566c0.644,2.144,0.964,4.474,0.964,6.992V63.66 M566.705,60.766
		c0.081-2.839-0.489-5.068-1.707-6.69c-1.22-1.621-3.101-2.43-5.646-2.43c-1.285,0-2.402,0.241-3.354,0.723
		c-0.95,0.481-1.741,1.131-2.37,1.948c-0.63,0.818-1.111,1.782-1.447,2.892c-0.335,1.113-0.526,2.3-0.582,3.557H566.705z"/>
</g>
<g>
	<path fill="#FFFFFF" d="M297.321,168.778c0,0.613-0.107,1.16-0.32,1.641c-0.213,0.479-0.5,0.879-0.86,1.199s-0.787,0.555-1.28,0.7
		c-0.494,0.146-0.994,0.22-1.5,0.22h-4.48c-0.934,0-1.74-0.093-2.42-0.279c-0.68-0.188-1.307-0.526-1.88-1.021
		c-0.574-0.493-1.127-1.159-1.66-2c-0.534-0.84-1.133-1.927-1.8-3.261l-12.88-24.199c-0.747-1.439-1.507-2.992-2.28-4.66
		c-0.773-1.666-1.467-3.285-2.08-4.859h-0.08c0.106,1.92,0.187,3.834,0.24,5.74c0.053,1.905,0.08,3.873,0.08,5.898v27.08
		c0,0.268-0.074,0.508-0.22,0.721c-0.146,0.215-0.4,0.395-0.76,0.54s-0.847,0.261-1.46,0.341c-0.614,0.08-1.4,0.119-2.36,0.119
		c-0.934,0-1.707-0.039-2.32-0.119c-0.614-0.08-1.094-0.193-1.44-0.341c-0.347-0.146-0.587-0.325-0.72-0.54
		c-0.134-0.213-0.2-0.453-0.2-0.721v-46.52c0-1.254,0.366-2.193,1.1-2.82c0.733-0.627,1.633-0.939,2.7-0.939h5.64
		c1.013,0,1.866,0.086,2.56,0.26c0.693,0.174,1.313,0.461,1.86,0.859c0.546,0.4,1.06,0.954,1.54,1.66
		c0.48,0.707,0.973,1.58,1.48,2.62l10.08,18.92c0.586,1.147,1.167,2.274,1.74,3.38c0.573,1.107,1.126,2.214,1.66,3.32
		c0.533,1.107,1.053,2.193,1.56,3.26c0.506,1.066,1,2.134,1.48,3.199h0.04c-0.08-1.865-0.14-3.811-0.18-5.84
		c-0.04-2.025-0.06-3.959-0.06-5.799v-24.281c0-0.266,0.08-0.506,0.24-0.719c0.16-0.215,0.426-0.4,0.8-0.562
		c0.373-0.16,0.866-0.272,1.48-0.341c0.613-0.065,1.4-0.1,2.36-0.1c0.906,0,1.666,0.033,2.28,0.1
		c0.613,0.068,1.086,0.181,1.42,0.341c0.333,0.159,0.566,0.347,0.7,0.562c0.133,0.213,0.2,0.453,0.2,0.719V168.778z"/>
	<path fill="#FFFFFF" d="M340.961,152.217c0,1.227-0.273,2.134-0.82,2.72c-0.547,0.587-1.301,0.881-2.26,0.881H316.16
		c0,1.521,0.18,2.899,0.541,4.14c0.358,1.24,0.932,2.295,1.719,3.16c0.787,0.866,1.801,1.526,3.041,1.979
		c1.24,0.454,2.727,0.681,4.459,0.681c1.76,0,3.307-0.127,4.641-0.38c1.334-0.254,2.486-0.532,3.461-0.841
		c0.974-0.307,1.779-0.586,2.421-0.84c0.639-0.254,1.159-0.381,1.559-0.381c0.24,0,0.441,0.047,0.602,0.141
		c0.158,0.094,0.293,0.261,0.398,0.5c0.106,0.24,0.18,0.58,0.221,1.021c0.039,0.438,0.062,0.994,0.062,1.66
		c0,0.586-0.015,1.086-0.041,1.5c-0.027,0.412-0.066,0.766-0.119,1.059c-0.055,0.295-0.135,0.541-0.24,0.74
		c-0.106,0.201-0.248,0.395-0.42,0.58c-0.174,0.188-0.646,0.439-1.42,0.76c-0.774,0.322-1.76,0.635-2.961,0.94
		c-1.199,0.306-2.574,0.573-4.119,0.8c-1.547,0.228-3.201,0.34-4.961,0.34c-3.174,0-5.953-0.399-8.34-1.199
		c-2.387-0.801-4.379-2.014-5.979-3.641c-1.601-1.625-2.794-3.68-3.579-6.16c-0.787-2.479-1.181-5.387-1.181-8.719
		c0-3.175,0.414-6.033,1.24-8.58s2.026-4.707,3.6-6.48c1.574-1.771,3.486-3.126,5.74-4.061c2.254-0.934,4.793-1.399,7.621-1.399
		c2.986,0,5.539,0.44,7.66,1.319c2.119,0.881,3.858,2.101,5.219,3.66c1.361,1.561,2.361,3.406,3,5.541
		c0.641,2.133,0.961,4.452,0.961,6.959v1.6H340.961z M331.202,149.336c0.08-2.826-0.488-5.045-1.701-6.66
		c-1.213-1.612-3.086-2.42-5.619-2.42c-1.281,0-2.395,0.24-3.34,0.721c-0.947,0.48-1.734,1.127-2.361,1.939
		c-0.627,0.813-1.104,1.773-1.438,2.881s-0.527,2.287-0.58,3.539H331.202z"/>
	<path fill="#FFFFFF" d="M369.801,167.579c0,1.174-0.074,2.072-0.22,2.699c-0.147,0.627-0.34,1.066-0.58,1.319
		c-0.24,0.254-0.594,0.479-1.061,0.681c-0.468,0.199-1.015,0.373-1.641,0.52c-0.627,0.146-1.307,0.261-2.04,0.341
		c-0.732,0.079-1.474,0.12-2.22,0.12c-2,0-3.734-0.254-5.2-0.76c-1.467-0.506-2.68-1.287-3.641-2.34
		c-0.96-1.055-1.666-2.381-2.119-3.98c-0.454-1.6-0.681-3.493-0.681-5.68v-18.281h-4.279c-0.508,0-0.896-0.312-1.16-0.938
		c-0.268-0.628-0.4-1.675-0.4-3.142c0-0.772,0.033-1.427,0.101-1.96c0.065-0.533,0.167-0.953,0.301-1.26
		c0.133-0.308,0.3-0.526,0.5-0.66c0.199-0.133,0.434-0.2,0.699-0.2h4.24v-7.96c0-0.266,0.072-0.506,0.221-0.721
		c0.146-0.213,0.413-0.394,0.8-0.539c0.386-0.146,0.906-0.254,1.56-0.32s1.461-0.1,2.421-0.1c0.985,0,1.807,0.033,2.46,0.1
		c0.652,0.066,1.167,0.174,1.54,0.32c0.373,0.146,0.641,0.326,0.801,0.539c0.159,0.215,0.239,0.455,0.239,0.721v7.96h7.761
		c0.266,0,0.5,0.067,0.699,0.2c0.199,0.134,0.365,0.354,0.5,0.66c0.134,0.306,0.232,0.727,0.301,1.26
		c0.064,0.533,0.1,1.188,0.1,1.96c0,1.467-0.134,2.514-0.399,3.142c-0.268,0.625-0.653,0.938-1.159,0.938h-7.801v16.761
		c0,1.946,0.307,3.407,0.92,4.381c0.612,0.974,1.707,1.46,3.279,1.46c0.533,0,1.015-0.047,1.44-0.141s0.806-0.2,1.14-0.319
		c0.333-0.12,0.613-0.228,0.841-0.319c0.227-0.094,0.434-0.141,0.619-0.141c0.16,0,0.313,0.047,0.46,0.141s0.261,0.279,0.341,0.56
		s0.152,0.659,0.221,1.142C369.767,166.217,369.801,166.833,369.801,167.579z"/>
	<path fill="#FFFFFF" d="M431.681,135.336c0,0.295-0.04,0.654-0.12,1.08c-0.079,0.428-0.228,1.041-0.439,1.84l-9.521,32.281
		c-0.134,0.453-0.308,0.819-0.521,1.1c-0.214,0.279-0.54,0.5-0.979,0.66s-1.066,0.267-1.88,0.32c-0.813,0.053-1.874,0.08-3.181,0.08
		s-2.374-0.035-3.2-0.102s-1.474-0.18-1.938-0.34c-0.468-0.16-0.808-0.381-1.021-0.66s-0.373-0.633-0.479-1.061l-6-21.681
		l-0.08-0.358l-0.08,0.358l-5.521,21.681c-0.105,0.455-0.26,0.82-0.46,1.101c-0.199,0.28-0.54,0.5-1.02,0.659
		c-0.48,0.16-1.134,0.268-1.96,0.32c-0.827,0.053-1.895,0.08-3.2,0.08c-1.334,0-2.407-0.033-3.22-0.101
		c-0.814-0.065-1.454-0.181-1.92-0.341c-0.468-0.159-0.809-0.379-1.021-0.659c-0.214-0.279-0.374-0.634-0.479-1.06L374,138.254
		c-0.24-0.772-0.394-1.379-0.46-1.819c-0.066-0.438-0.1-0.806-0.1-1.101c0-0.267,0.071-0.5,0.22-0.699
		c0.146-0.2,0.413-0.359,0.8-0.479c0.387-0.121,0.906-0.207,1.562-0.262c0.651-0.053,1.473-0.08,2.46-0.08
		c1.064,0,1.933,0.027,2.6,0.08c0.666,0.055,1.187,0.146,1.56,0.279c0.374,0.135,0.635,0.314,0.78,0.541
		c0.146,0.227,0.26,0.5,0.34,0.82l7.08,26.199l0.08,0.479l0.08-0.479l6.641-26.199c0.079-0.32,0.206-0.595,0.38-0.82
		c0.174-0.227,0.434-0.406,0.779-0.541c0.348-0.133,0.833-0.227,1.46-0.279s1.435-0.08,2.42-0.08c0.986,0,1.787,0.034,2.4,0.102
		c0.613,0.066,1.101,0.16,1.46,0.279c0.36,0.119,0.613,0.279,0.76,0.479c0.147,0.201,0.261,0.435,0.341,0.701l7.119,26.399
		l0.12,0.438l0.08-0.479l6.801-26.199c0.053-0.32,0.159-0.595,0.319-0.82c0.16-0.227,0.427-0.406,0.8-0.541
		c0.373-0.133,0.881-0.227,1.521-0.279c0.64-0.053,1.452-0.08,2.438-0.08s1.794,0.027,2.421,0.08
		c0.626,0.055,1.119,0.141,1.479,0.262c0.359,0.119,0.605,0.278,0.739,0.479C431.614,134.836,431.681,135.071,431.681,135.336z"/>
	<path fill="#FFFFFF" d="M473.521,152.897c0,3.04-0.4,5.814-1.2,8.32c-0.8,2.507-2.015,4.666-3.641,6.48
		c-1.627,1.812-3.667,3.213-6.12,4.199c-2.453,0.984-5.319,1.479-8.6,1.479c-3.174,0-5.935-0.438-8.28-1.319
		c-2.347-0.88-4.294-2.159-5.84-3.841c-1.547-1.68-2.694-3.746-3.439-6.199c-0.747-2.453-1.12-5.253-1.12-8.398
		c0-3.041,0.406-5.82,1.22-8.341s2.033-4.681,3.66-6.479s3.66-3.193,6.101-4.18c2.439-0.986,5.301-1.48,8.58-1.48
		c3.199,0,5.973,0.434,8.319,1.3c2.347,0.867,4.287,2.142,5.819,3.819c1.533,1.68,2.674,3.748,3.421,6.201
		C473.146,146.913,473.521,149.724,473.521,152.897z M463.161,153.297c0-1.76-0.14-3.381-0.42-4.86
		c-0.279-1.479-0.754-2.767-1.42-3.858c-0.667-1.095-1.555-1.947-2.66-2.562c-1.106-0.613-2.5-0.92-4.181-0.92
		c-1.493,0-2.8,0.274-3.92,0.819c-1.119,0.547-2.039,1.348-2.76,2.4c-0.721,1.055-1.261,2.318-1.62,3.801
		c-0.359,1.479-0.54,3.166-0.54,5.059c0,1.761,0.146,3.381,0.439,4.861c0.294,1.479,0.767,2.767,1.42,3.859
		c0.653,1.094,1.54,1.939,2.66,2.539c1.12,0.602,2.507,0.9,4.16,0.9c1.521,0,2.84-0.273,3.96-0.82s2.04-1.34,2.76-2.381
		c0.721-1.039,1.254-2.299,1.601-3.778S463.161,155.191,463.161,153.297z"/>
	<path fill="#FFFFFF" d="M504.402,138.739c0,0.959-0.026,1.745-0.08,2.358c-0.055,0.614-0.135,1.094-0.24,1.44
		c-0.105,0.346-0.246,0.586-0.42,0.719c-0.174,0.135-0.395,0.201-0.659,0.201c-0.214,0-0.454-0.047-0.721-0.141
		c-0.268-0.094-0.566-0.193-0.899-0.301c-0.334-0.105-0.7-0.206-1.101-0.301c-0.399-0.092-0.84-0.139-1.319-0.139
		c-0.561,0-1.12,0.112-1.681,0.34c-0.561,0.227-1.141,0.58-1.74,1.06s-1.227,1.12-1.88,1.92c-0.653,0.802-1.354,1.787-2.1,2.96
		v22.24c0,0.268-0.08,0.5-0.24,0.699c-0.16,0.201-0.435,0.367-0.819,0.5c-0.388,0.135-0.899,0.233-1.54,0.301
		c-0.641,0.066-1.454,0.102-2.439,0.102c-0.987,0-1.801-0.035-2.44-0.102s-1.153-0.166-1.54-0.301
		c-0.387-0.133-0.659-0.299-0.819-0.5c-0.159-0.199-0.239-0.432-0.239-0.699v-35.68c0-0.268,0.065-0.5,0.199-0.701
		c0.134-0.199,0.373-0.365,0.721-0.5c0.347-0.133,0.793-0.232,1.34-0.299c0.547-0.067,1.232-0.102,2.061-0.102
		c0.854,0,1.561,0.034,2.12,0.102c0.561,0.065,0.993,0.166,1.3,0.299c0.307,0.135,0.526,0.301,0.66,0.5
		c0.133,0.201,0.199,0.435,0.199,0.701v4.438c0.934-1.333,1.812-2.433,2.641-3.3c0.826-0.866,1.613-1.553,2.359-2.061
		c0.747-0.506,1.493-0.859,2.24-1.061c0.746-0.199,1.493-0.301,2.24-0.301c0.347,0,0.72,0.021,1.119,0.062s0.813,0.106,1.24,0.199
		c0.426,0.095,0.8,0.2,1.12,0.319c0.319,0.121,0.553,0.248,0.699,0.381c0.146,0.134,0.254,0.279,0.319,0.439
		c0.066,0.16,0.127,0.381,0.181,0.66s0.094,0.699,0.12,1.26C504.388,137.017,504.402,137.778,504.402,138.739z"/>
	<path fill="#FFFFFF" d="M543.762,171.137c0,0.268-0.073,0.5-0.22,0.699c-0.146,0.201-0.414,0.361-0.801,0.48
		c-0.388,0.12-0.913,0.213-1.579,0.279c-0.667,0.066-1.534,0.102-2.602,0.102c-1.094,0-1.979-0.027-2.659-0.08
		c-0.681-0.055-1.239-0.142-1.681-0.261c-0.439-0.12-0.779-0.287-1.021-0.5c-0.239-0.214-0.453-0.493-0.64-0.841l-11.881-18.801
		v18.881c0,0.268-0.08,0.5-0.239,0.699c-0.16,0.201-0.435,0.367-0.819,0.5c-0.388,0.135-0.9,0.233-1.54,0.301
		c-0.641,0.066-1.454,0.102-2.44,0.102s-1.8-0.035-2.439-0.102s-1.153-0.166-1.54-0.301c-0.387-0.133-0.659-0.299-0.819-0.5
		c-0.16-0.199-0.239-0.433-0.239-0.699v-52.6c0-0.268,0.079-0.508,0.239-0.722c0.16-0.213,0.434-0.394,0.819-0.54
		c0.387-0.146,0.9-0.26,1.54-0.34c0.641-0.08,1.453-0.12,2.439-0.12s1.801,0.04,2.44,0.12s1.152,0.193,1.54,0.34
		c0.386,0.146,0.659,0.327,0.819,0.54c0.159,0.214,0.239,0.454,0.239,0.722v31.319l10.561-14.2c0.214-0.32,0.453-0.601,0.721-0.84
		c0.266-0.24,0.62-0.427,1.061-0.561c0.439-0.133,0.985-0.233,1.641-0.301c0.652-0.065,1.485-0.101,2.5-0.101
		c0.985,0,1.819,0.034,2.5,0.101c0.68,0.066,1.226,0.168,1.64,0.301c0.413,0.134,0.7,0.3,0.86,0.5
		c0.159,0.199,0.239,0.447,0.239,0.74c0,0.398-0.101,0.826-0.3,1.279c-0.2,0.453-0.5,0.934-0.899,1.439l-10.44,11.84l12.08,18.681
		c0.32,0.533,0.554,0.993,0.7,1.38C543.688,170.463,543.762,170.818,543.762,171.137z"/>
	<path fill="#FFFFFF" d="M574.362,161.017c0,2.026-0.38,3.813-1.141,5.36s-1.834,2.84-3.221,3.879
		c-1.387,1.041-3.026,1.82-4.92,2.341s-3.946,0.78-6.16,0.78c-1.333,0-2.605-0.101-3.819-0.301c-1.214-0.199-2.301-0.453-3.261-0.76
		s-1.76-0.619-2.398-0.939c-0.642-0.32-1.107-0.621-1.4-0.9c-0.294-0.279-0.52-0.721-0.68-1.318c-0.16-0.602-0.24-1.486-0.24-2.66
		c0-0.773,0.026-1.395,0.08-1.86c0.053-0.466,0.133-0.841,0.24-1.12c0.105-0.279,0.239-0.467,0.398-0.561
		c0.16-0.092,0.36-0.14,0.602-0.14c0.293,0,0.726,0.166,1.3,0.5c0.573,0.333,1.286,0.699,2.14,1.101
		c0.854,0.4,1.848,0.772,2.98,1.119c1.133,0.348,2.42,0.521,3.859,0.521c0.906,0,1.714-0.093,2.42-0.279s1.319-0.452,1.841-0.801
		c0.52-0.347,0.913-0.786,1.18-1.319s0.4-1.146,0.4-1.84c0-0.801-0.247-1.486-0.74-2.061c-0.494-0.573-1.146-1.073-1.96-1.5
		c-0.813-0.426-1.733-0.826-2.761-1.2c-1.026-0.373-2.079-0.786-3.159-1.239s-2.134-0.974-3.16-1.561
		c-1.027-0.586-1.947-1.307-2.76-2.16c-0.814-0.854-1.468-1.881-1.96-3.08c-0.494-1.199-0.74-2.641-0.74-4.318
		c0-1.707,0.333-3.273,1-4.701c0.666-1.426,1.626-2.646,2.88-3.66c1.253-1.012,2.78-1.799,4.58-2.359s3.82-0.84,6.06-0.84
		c1.12,0,2.207,0.08,3.262,0.24c1.053,0.16,2.006,0.359,2.858,0.6c0.854,0.24,1.573,0.5,2.16,0.779
		c0.587,0.281,1.007,0.521,1.26,0.721c0.254,0.2,0.435,0.4,0.54,0.602c0.106,0.201,0.188,0.438,0.24,0.719
		c0.053,0.281,0.101,0.627,0.141,1.041c0.039,0.414,0.061,0.927,0.061,1.539c0,0.721-0.021,1.308-0.061,1.761
		c-0.04,0.454-0.106,0.813-0.199,1.079c-0.095,0.268-0.222,0.447-0.381,0.541s-0.348,0.14-0.561,0.14c-0.24,0-0.613-0.14-1.12-0.42
		c-0.507-0.278-1.14-0.58-1.899-0.899c-0.761-0.32-1.641-0.619-2.641-0.899s-2.14-0.421-3.42-0.421
		c-0.906,0-1.693,0.095-2.359,0.281c-0.667,0.187-1.214,0.453-1.641,0.799c-0.427,0.348-0.747,0.754-0.96,1.221
		c-0.214,0.467-0.32,0.967-0.32,1.5c0,0.827,0.254,1.521,0.762,2.08c0.506,0.561,1.173,1.054,2,1.48
		c0.825,0.426,1.766,0.826,2.818,1.199c1.054,0.373,2.12,0.779,3.2,1.221c1.08,0.438,2.146,0.953,3.2,1.539
		c1.053,0.588,1.993,1.308,2.819,2.16c0.826,0.854,1.493,1.873,2,3.061C574.108,157.984,574.362,159.391,574.362,161.017z"/>
</g>
</svg>
