<svg width="155" height="75" viewBox="0 0 155 75" fill="none" xmlns="http://www.w3.org/2000/svg">
<path d="M22.2373 29.7977C20.2259 30.2741 16.6796 31.3327 14.3507 32.2325C10.1163 33.8733 1.11817 39.5369 0.0595643 41.2306C-0.416806 42.0775 1.80626 44.5123 15.8857 58.5917L32.294 75L40.604 66.69C45.2089 62.0851 48.9669 58.1682 48.9669 58.0095C48.9669 57.7977 47.4849 58.1153 45.6853 58.7505C40.5511 60.4442 30.4414 60.3913 25.5719 58.6446C16.4679 55.3629 12.0218 48.0057 15.0388 41.3365C18.638 33.397 32.3469 29.1626 41.4509 33.1853C52.6191 38.1077 49.1257 49.7524 36.2108 50.5463C31.4471 50.811 29.0652 50.1758 27.001 48.0057C25.5719 46.5236 25.5189 46.3119 26.3129 45.518C27.1068 44.724 27.3185 44.7769 28.8535 46.0473C31.6588 48.4291 36.2637 48.5879 40.4452 46.4178C43.0388 45.1474 44.2032 43.2949 44.2032 40.5425C44.2032 38.69 43.8857 38.0019 42.1919 36.3611C36.3167 30.4858 21.1787 33.6087 18.3204 41.2836C15.8327 47.7939 20.9669 54.5161 29.8063 56.4215C40.6569 58.6975 50.1843 55.3629 61.8289 45.0945C63.4698 43.6125 64.846 42.1834 64.846 41.8129C64.846 40.8072 58.0709 35.9905 53.466 33.7675C46.5322 30.327 42.4036 29.3743 33.6172 29.1626C28.0066 29.0038 24.9367 29.2155 22.2373 29.7977Z" fill="#222222"/>
<path d="M32.2874 0L0 38.3743H1.0586C35.9924 9.52741 59.0926 38.218 64.8393 38.3743C64.874 38.3752 65.5998 38.3752 65.6333 38.3743L32.2874 0Z" fill="#222222"/>
<path d="M85.316 45.254C85.25 45.362 85.181 45.443 85.109 45.497C85.037 45.545 84.947 45.569 84.839 45.569C84.725 45.569 84.596 45.521 84.452 45.425C84.314 45.329 84.14 45.224 83.93 45.11C83.726 44.99 83.483 44.882 83.201 44.786C82.919 44.684 82.583 44.633 82.193 44.633C81.833 44.633 81.515 44.678 81.239 44.768C80.969 44.858 80.741 44.984 80.555 45.146C80.369 45.308 80.228 45.5 80.132 45.722C80.042 45.938 79.997 46.175 79.997 46.433C79.997 46.763 80.084 47.039 80.258 47.261C80.432 47.477 80.66 47.663 80.942 47.819C81.23 47.975 81.557 48.113 81.923 48.233C82.289 48.347 82.661 48.47 83.039 48.602C83.423 48.734 83.798 48.884 84.164 49.052C84.53 49.22 84.854 49.433 85.136 49.691C85.424 49.949 85.655 50.264 85.829 50.636C86.003 51.008 86.09 51.461 86.09 51.995C86.09 52.571 85.991 53.111 85.793 53.615C85.595 54.119 85.307 54.56 84.929 54.938C84.557 55.31 84.095 55.604 83.543 55.82C82.997 56.036 82.373 56.144 81.671 56.144C81.257 56.144 80.852 56.102 80.456 56.018C80.066 55.94 79.691 55.829 79.331 55.685C78.977 55.535 78.644 55.355 78.332 55.145C78.02 54.935 77.741 54.701 77.495 54.443L78.107 53.435C78.161 53.351 78.23 53.285 78.314 53.237C78.398 53.189 78.491 53.165 78.593 53.165C78.731 53.165 78.884 53.231 79.052 53.363C79.22 53.489 79.421 53.63 79.655 53.786C79.895 53.936 80.183 54.077 80.519 54.209C80.855 54.335 81.257 54.398 81.725 54.398C82.487 54.398 83.075 54.212 83.489 53.84C83.909 53.468 84.119 52.955 84.119 52.301C84.119 51.935 84.032 51.638 83.858 51.41C83.684 51.176 83.453 50.981 83.165 50.825C82.883 50.669 82.559 50.537 82.193 50.429C81.827 50.321 81.455 50.207 81.077 50.087C80.699 49.961 80.327 49.817 79.961 49.655C79.595 49.487 79.268 49.271 78.98 49.007C78.698 48.737 78.47 48.407 78.296 48.017C78.122 47.621 78.035 47.129 78.035 46.541C78.035 46.073 78.125 45.62 78.305 45.182C78.491 44.744 78.758 44.357 79.106 44.021C79.46 43.679 79.895 43.406 80.411 43.202C80.927 42.998 81.515 42.896 82.175 42.896C82.919 42.896 83.6 43.013 84.218 43.247C84.842 43.481 85.379 43.814 85.829 44.246L85.316 45.254ZM95.6931 46.82L90.6351 58.61C90.5691 58.748 90.4881 58.856 90.3921 58.934C90.3021 59.012 90.1611 59.051 89.9691 59.051H88.5381L90.2301 55.379L86.4861 46.82H88.1691C88.3311 46.82 88.4541 46.859 88.5381 46.937C88.6281 47.009 88.6941 47.096 88.7361 47.198L90.9231 52.409C90.9771 52.559 91.0251 52.709 91.0671 52.859C91.1151 53.003 91.1601 53.153 91.2021 53.309C91.2501 53.153 91.2981 53 91.3461 52.85C91.3941 52.7 91.4481 52.55 91.5081 52.4L93.6051 47.198C93.6471 47.09 93.7161 47 93.8121 46.928C93.9141 46.856 94.0251 46.82 94.1451 46.82H95.6931ZM102.258 48.485C102.21 48.569 102.156 48.629 102.096 48.665C102.036 48.701 101.961 48.719 101.871 48.719C101.769 48.719 101.658 48.689 101.538 48.629C101.418 48.563 101.277 48.491 101.115 48.413C100.953 48.335 100.761 48.266 100.539 48.206C100.323 48.14 100.068 48.107 99.7737 48.107C99.5337 48.107 99.3147 48.137 99.1167 48.197C98.9247 48.251 98.7597 48.332 98.6217 48.44C98.4897 48.542 98.3877 48.665 98.3157 48.809C98.2437 48.947 98.2077 49.097 98.2077 49.259C98.2077 49.475 98.2737 49.655 98.4057 49.799C98.5377 49.943 98.7117 50.069 98.9277 50.177C99.1437 50.279 99.3897 50.372 99.6657 50.456C99.9417 50.54 100.224 50.63 100.512 50.726C100.8 50.822 101.082 50.933 101.358 51.059C101.634 51.185 101.88 51.341 102.096 51.527C102.312 51.707 102.486 51.929 102.618 52.193C102.75 52.451 102.816 52.766 102.816 53.138C102.816 53.57 102.738 53.969 102.582 54.335C102.426 54.701 102.198 55.019 101.898 55.289C101.598 55.559 101.223 55.769 100.773 55.919C100.329 56.069 99.8187 56.144 99.2427 56.144C98.9247 56.144 98.6157 56.114 98.3157 56.054C98.0217 56 97.7397 55.925 97.4697 55.829C97.2057 55.727 96.9567 55.607 96.7227 55.469C96.4947 55.331 96.2907 55.181 96.1107 55.019L96.5607 54.281C96.6147 54.191 96.6807 54.122 96.7587 54.074C96.8427 54.02 96.9447 53.993 97.0647 53.993C97.1907 53.993 97.3137 54.035 97.4337 54.119C97.5597 54.197 97.7037 54.284 97.8657 54.38C98.0337 54.476 98.2347 54.566 98.4687 54.65C98.7027 54.728 98.9937 54.767 99.3417 54.767C99.6297 54.767 99.8787 54.734 100.089 54.668C100.299 54.596 100.473 54.5 100.611 54.38C100.749 54.26 100.851 54.125 100.917 53.975C100.983 53.819 101.016 53.654 101.016 53.48C101.016 53.246 100.95 53.054 100.818 52.904C100.686 52.754 100.509 52.625 100.287 52.517C100.071 52.409 99.8217 52.313 99.5397 52.229C99.2637 52.145 98.9817 52.055 98.6937 51.959C98.4057 51.863 98.1207 51.752 97.8387 51.626C97.5627 51.5 97.3137 51.341 97.0917 51.149C96.8757 50.951 96.7017 50.714 96.5697 50.438C96.4377 50.156 96.3717 49.814 96.3717 49.412C96.3717 49.046 96.4437 48.698 96.5877 48.368C96.7377 48.038 96.9537 47.747 97.2357 47.495C97.5237 47.243 97.8747 47.045 98.2887 46.901C98.7087 46.751 99.1917 46.676 99.7377 46.676C100.356 46.676 100.917 46.775 101.421 46.973C101.925 47.171 102.348 47.441 102.69 47.783L102.258 48.485ZM107.577 56.144C106.815 56.144 106.227 55.931 105.813 55.505C105.405 55.073 105.201 54.467 105.201 53.687V48.341H104.193C104.085 48.341 103.992 48.308 103.914 48.242C103.836 48.17 103.797 48.065 103.797 47.927V47.144L105.282 46.928L105.705 44.273C105.735 44.171 105.786 44.09 105.858 44.03C105.93 43.964 106.026 43.931 106.146 43.931H107.136V46.946H109.683V48.341H107.136V53.552C107.136 53.882 107.217 54.134 107.379 54.308C107.541 54.482 107.757 54.569 108.027 54.569C108.177 54.569 108.306 54.551 108.414 54.515C108.522 54.473 108.615 54.431 108.693 54.389C108.771 54.341 108.837 54.299 108.891 54.263C108.951 54.221 109.008 54.2 109.062 54.2C109.17 54.2 109.257 54.26 109.323 54.38L109.899 55.325C109.599 55.589 109.245 55.793 108.837 55.937C108.429 56.075 108.009 56.144 107.577 56.144ZM117.159 50.375C117.159 50.051 117.111 49.751 117.015 49.475C116.925 49.193 116.79 48.95 116.61 48.746C116.43 48.536 116.205 48.374 115.935 48.26C115.671 48.14 115.365 48.08 115.017 48.08C114.315 48.08 113.763 48.281 113.361 48.683C112.959 49.085 112.704 49.649 112.596 50.375H117.159ZM112.542 51.563C112.566 52.085 112.647 52.538 112.785 52.922C112.923 53.3 113.106 53.615 113.334 53.867C113.568 54.119 113.844 54.308 114.162 54.434C114.486 54.554 114.846 54.614 115.242 54.614C115.62 54.614 115.947 54.572 116.223 54.488C116.499 54.398 116.739 54.302 116.943 54.2C117.147 54.092 117.321 53.996 117.465 53.912C117.609 53.822 117.741 53.777 117.861 53.777C118.017 53.777 118.137 53.837 118.221 53.957L118.77 54.668C118.542 54.938 118.284 55.166 117.996 55.352C117.708 55.538 117.402 55.691 117.078 55.811C116.754 55.925 116.421 56.006 116.079 56.054C115.737 56.108 115.404 56.135 115.08 56.135C114.444 56.135 113.853 56.03 113.307 55.82C112.767 55.604 112.296 55.289 111.894 54.875C111.498 54.461 111.186 53.948 110.958 53.336C110.736 52.724 110.625 52.019 110.625 51.221C110.625 50.585 110.724 49.991 110.922 49.439C111.126 48.887 111.414 48.407 111.786 47.999C112.164 47.591 112.62 47.27 113.154 47.036C113.694 46.796 114.303 46.676 114.981 46.676C115.545 46.676 116.067 46.769 116.547 46.955C117.027 47.135 117.441 47.402 117.789 47.756C118.137 48.11 118.407 48.545 118.599 49.061C118.797 49.571 118.896 50.153 118.896 50.807C118.896 51.107 118.863 51.308 118.797 51.41C118.731 51.512 118.611 51.563 118.437 51.563H112.542ZM120.7 56V46.82H121.87C122.134 46.82 122.302 46.943 122.374 47.189L122.5 47.99C122.668 47.798 122.842 47.624 123.022 47.468C123.202 47.306 123.394 47.168 123.598 47.054C123.808 46.934 124.03 46.841 124.264 46.775C124.504 46.709 124.762 46.676 125.038 46.676C125.332 46.676 125.602 46.718 125.848 46.802C126.094 46.886 126.31 47.006 126.496 47.162C126.688 47.318 126.853 47.507 126.991 47.729C127.129 47.951 127.243 48.2 127.333 48.476C127.471 48.158 127.645 47.885 127.855 47.657C128.065 47.429 128.299 47.243 128.557 47.099C128.815 46.955 129.088 46.85 129.376 46.784C129.67 46.712 129.967 46.676 130.267 46.676C130.759 46.676 131.197 46.754 131.581 46.91C131.971 47.066 132.298 47.294 132.562 47.594C132.832 47.888 133.036 48.251 133.174 48.683C133.312 49.115 133.381 49.607 133.381 50.159V56H131.446V50.159C131.446 49.511 131.305 49.025 131.023 48.701C130.747 48.371 130.336 48.206 129.79 48.206C129.544 48.206 129.313 48.248 129.097 48.332C128.881 48.416 128.692 48.539 128.53 48.701C128.368 48.863 128.239 49.067 128.143 49.313C128.053 49.553 128.008 49.835 128.008 50.159V56H126.073V50.159C126.073 49.487 125.938 48.995 125.668 48.683C125.398 48.365 125.002 48.206 124.48 48.206C124.12 48.206 123.787 48.299 123.481 48.485C123.175 48.665 122.893 48.914 122.635 49.232V56H120.7ZM141.123 48.485C141.075 48.569 141.021 48.629 140.961 48.665C140.901 48.701 140.826 48.719 140.736 48.719C140.634 48.719 140.523 48.689 140.403 48.629C140.283 48.563 140.142 48.491 139.98 48.413C139.818 48.335 139.626 48.266 139.404 48.206C139.188 48.14 138.933 48.107 138.639 48.107C138.399 48.107 138.18 48.137 137.982 48.197C137.79 48.251 137.625 48.332 137.487 48.44C137.355 48.542 137.253 48.665 137.181 48.809C137.109 48.947 137.073 49.097 137.073 49.259C137.073 49.475 137.139 49.655 137.271 49.799C137.403 49.943 137.577 50.069 137.793 50.177C138.009 50.279 138.255 50.372 138.531 50.456C138.807 50.54 139.089 50.63 139.377 50.726C139.665 50.822 139.947 50.933 140.223 51.059C140.499 51.185 140.745 51.341 140.961 51.527C141.177 51.707 141.351 51.929 141.483 52.193C141.615 52.451 141.681 52.766 141.681 53.138C141.681 53.57 141.603 53.969 141.447 54.335C141.291 54.701 141.063 55.019 140.763 55.289C140.463 55.559 140.088 55.769 139.638 55.919C139.194 56.069 138.684 56.144 138.108 56.144C137.79 56.144 137.481 56.114 137.181 56.054C136.887 56 136.605 55.925 136.335 55.829C136.071 55.727 135.822 55.607 135.588 55.469C135.36 55.331 135.156 55.181 134.976 55.019L135.426 54.281C135.48 54.191 135.546 54.122 135.624 54.074C135.708 54.02 135.81 53.993 135.93 53.993C136.056 53.993 136.179 54.035 136.299 54.119C136.425 54.197 136.569 54.284 136.731 54.38C136.899 54.476 137.1 54.566 137.334 54.65C137.568 54.728 137.859 54.767 138.207 54.767C138.495 54.767 138.744 54.734 138.954 54.668C139.164 54.596 139.338 54.5 139.476 54.38C139.614 54.26 139.716 54.125 139.782 53.975C139.848 53.819 139.881 53.654 139.881 53.48C139.881 53.246 139.815 53.054 139.683 52.904C139.551 52.754 139.374 52.625 139.152 52.517C138.936 52.409 138.687 52.313 138.405 52.229C138.129 52.145 137.847 52.055 137.559 51.959C137.271 51.863 136.986 51.752 136.704 51.626C136.428 51.5 136.179 51.341 135.957 51.149C135.741 50.951 135.567 50.714 135.435 50.438C135.303 50.156 135.237 49.814 135.237 49.412C135.237 49.046 135.309 48.698 135.453 48.368C135.603 48.038 135.819 47.747 136.101 47.495C136.389 47.243 136.74 47.045 137.154 46.901C137.574 46.751 138.057 46.676 138.603 46.676C139.221 46.676 139.782 46.775 140.286 46.973C140.79 47.171 141.213 47.441 141.555 47.783L141.123 48.485Z" fill="black"/>
<path d="M86.63 32.299L86.621 34H78.539V21.04H86.621V22.741H80.654V26.647H85.424V28.294H80.654V32.299H86.63ZM90.1482 26.035C90.3462 25.831 90.5502 25.648 90.7602 25.486C90.9762 25.318 91.2042 25.174 91.4442 25.054C91.6842 24.934 91.9392 24.841 92.2092 24.775C92.4792 24.709 92.7732 24.676 93.0912 24.676C93.5952 24.676 94.0362 24.76 94.4142 24.928C94.7982 25.096 95.1192 25.333 95.3772 25.639C95.6412 25.945 95.8392 26.314 95.9712 26.746C96.1032 27.172 96.1692 27.643 96.1692 28.159V34H94.2432V28.159C94.2432 27.541 94.0992 27.061 93.8112 26.719C93.5292 26.377 93.0972 26.206 92.5152 26.206C92.0832 26.206 91.6812 26.305 91.3092 26.503C90.9432 26.701 90.5982 26.971 90.2742 27.313V34H88.3392V24.82H89.5092C89.7732 24.82 89.9412 24.943 90.0132 25.189L90.1482 26.035ZM101.705 29.329C102.305 29.329 102.755 29.176 103.055 28.87C103.355 28.564 103.505 28.165 103.505 27.673C103.505 27.169 103.355 26.77 103.055 26.476C102.755 26.182 102.305 26.035 101.705 26.035C101.111 26.035 100.661 26.182 100.355 26.476C100.055 26.77 99.905 27.169 99.905 27.673C99.905 27.913 99.944 28.135 100.022 28.339C100.1 28.543 100.214 28.72 100.364 28.87C100.514 29.014 100.7 29.128 100.922 29.212C101.15 29.29 101.411 29.329 101.705 29.329ZM104.396 34.45C104.396 34.246 104.336 34.084 104.216 33.964C104.102 33.838 103.946 33.742 103.748 33.676C103.55 33.604 103.319 33.553 103.055 33.523C102.791 33.487 102.509 33.463 102.209 33.451C101.915 33.433 101.612 33.418 101.3 33.406C100.994 33.388 100.697 33.358 100.409 33.316C100.121 33.466 99.884 33.646 99.698 33.856C99.518 34.066 99.428 34.309 99.428 34.585C99.428 34.765 99.473 34.933 99.563 35.089C99.659 35.245 99.803 35.38 99.995 35.494C100.193 35.608 100.442 35.698 100.742 35.764C101.048 35.83 101.414 35.863 101.84 35.863C102.692 35.863 103.331 35.731 103.757 35.467C104.183 35.203 104.396 34.864 104.396 34.45ZM106.34 25.153V25.873C106.34 26.113 106.196 26.26 105.908 26.314L104.99 26.467C105.146 26.815 105.224 27.202 105.224 27.628C105.224 28.078 105.134 28.486 104.954 28.852C104.78 29.218 104.537 29.53 104.225 29.788C103.913 30.046 103.541 30.244 103.109 30.382C102.677 30.52 102.209 30.589 101.705 30.589C101.513 30.589 101.324 30.58 101.138 30.562C100.958 30.538 100.781 30.508 100.607 30.472C100.433 30.574 100.304 30.682 100.22 30.796C100.136 30.91 100.094 31.027 100.094 31.147C100.094 31.345 100.181 31.492 100.355 31.588C100.529 31.684 100.757 31.753 101.039 31.795C101.327 31.837 101.654 31.864 102.02 31.876C102.386 31.888 102.758 31.909 103.136 31.939C103.514 31.969 103.886 32.02 104.252 32.092C104.618 32.158 104.942 32.272 105.224 32.434C105.512 32.59 105.743 32.803 105.917 33.073C106.091 33.343 106.178 33.694 106.178 34.126C106.178 34.522 106.079 34.909 105.881 35.287C105.683 35.665 105.395 36.001 105.017 36.295C104.645 36.589 104.189 36.823 103.649 36.997C103.109 37.177 102.494 37.267 101.804 37.267C101.12 37.267 100.523 37.201 100.013 37.069C99.509 36.937 99.086 36.757 98.744 36.529C98.408 36.307 98.156 36.049 97.988 35.755C97.826 35.461 97.745 35.155 97.745 34.837C97.745 34.405 97.88 34.036 98.15 33.73C98.426 33.424 98.798 33.184 99.266 33.01C99.014 32.89 98.81 32.725 98.654 32.515C98.504 32.305 98.429 32.029 98.429 31.687C98.429 31.417 98.528 31.135 98.726 30.841C98.924 30.547 99.221 30.298 99.617 30.094C99.161 29.842 98.801 29.509 98.537 29.095C98.273 28.675 98.141 28.186 98.141 27.628C98.141 27.172 98.228 26.761 98.402 26.395C98.582 26.029 98.831 25.717 99.149 25.459C99.467 25.201 99.842 25.003 100.274 24.865C100.712 24.727 101.189 24.658 101.705 24.658C102.497 24.658 103.187 24.823 103.775 25.153H106.34ZM109.803 25.909C110.181 25.537 110.595 25.24 111.045 25.018C111.495 24.79 112.02 24.676 112.62 24.676C113.124 24.676 113.565 24.76 113.943 24.928C114.327 25.096 114.648 25.333 114.906 25.639C115.17 25.945 115.368 26.314 115.5 26.746C115.632 27.172 115.698 27.643 115.698 28.159V34H113.772V28.159C113.772 27.541 113.628 27.061 113.34 26.719C113.058 26.377 112.626 26.206 112.044 26.206C111.612 26.206 111.21 26.305 110.838 26.503C110.472 26.701 110.127 26.971 109.803 27.313V34H107.868V20.68H109.803V25.909ZM121.927 24.676C122.605 24.676 123.217 24.787 123.763 25.009C124.315 25.231 124.783 25.546 125.167 25.954C125.557 26.362 125.857 26.857 126.067 27.439C126.277 28.021 126.382 28.675 126.382 29.401C126.382 30.127 126.277 30.781 126.067 31.363C125.857 31.945 125.557 32.443 125.167 32.857C124.783 33.265 124.315 33.58 123.763 33.802C123.217 34.024 122.605 34.135 121.927 34.135C121.243 34.135 120.625 34.024 120.073 33.802C119.527 33.58 119.059 33.265 118.669 32.857C118.279 32.443 117.979 31.945 117.769 31.363C117.559 30.781 117.454 30.127 117.454 29.401C117.454 28.675 117.559 28.021 117.769 27.439C117.979 26.857 118.279 26.362 118.669 25.954C119.059 25.546 119.527 25.231 120.073 25.009C120.625 24.787 121.243 24.676 121.927 24.676ZM121.927 32.623C122.755 32.623 123.37 32.347 123.772 31.795C124.18 31.237 124.384 30.442 124.384 29.41C124.384 28.378 124.18 27.583 123.772 27.025C123.37 26.461 122.755 26.179 121.927 26.179C121.087 26.179 120.463 26.461 120.055 27.025C119.647 27.583 119.443 28.378 119.443 29.41C119.443 30.442 119.647 31.237 120.055 31.795C120.463 32.347 121.087 32.623 121.927 32.623ZM135.982 24.82V34H134.812C134.554 34 134.389 33.877 134.317 33.631L134.173 32.776C133.981 32.98 133.777 33.166 133.561 33.334C133.351 33.502 133.126 33.646 132.886 33.766C132.646 33.886 132.388 33.979 132.112 34.045C131.842 34.111 131.551 34.144 131.239 34.144C130.735 34.144 130.291 34.06 129.907 33.892C129.523 33.724 129.199 33.487 128.935 33.181C128.677 32.875 128.482 32.509 128.35 32.083C128.218 31.651 128.152 31.177 128.152 30.661V24.82H130.087V30.661C130.087 31.279 130.228 31.759 130.51 32.101C130.798 32.443 131.233 32.614 131.814 32.614C132.241 32.614 132.637 32.518 133.003 32.326C133.375 32.128 133.723 31.858 134.047 31.516V24.82H135.982ZM143.812 26.485C143.764 26.569 143.71 26.629 143.65 26.665C143.59 26.701 143.515 26.719 143.425 26.719C143.323 26.719 143.212 26.689 143.092 26.629C142.972 26.563 142.831 26.491 142.669 26.413C142.507 26.335 142.315 26.266 142.093 26.206C141.877 26.14 141.622 26.107 141.328 26.107C141.088 26.107 140.869 26.137 140.671 26.197C140.479 26.251 140.314 26.332 140.176 26.44C140.044 26.542 139.942 26.665 139.87 26.809C139.798 26.947 139.762 27.097 139.762 27.259C139.762 27.475 139.828 27.655 139.96 27.799C140.092 27.943 140.266 28.069 140.482 28.177C140.698 28.279 140.944 28.372 141.22 28.456C141.496 28.54 141.778 28.63 142.066 28.726C142.354 28.822 142.636 28.933 142.912 29.059C143.188 29.185 143.434 29.341 143.65 29.527C143.866 29.707 144.04 29.929 144.172 30.193C144.304 30.451 144.37 30.766 144.37 31.138C144.37 31.57 144.292 31.969 144.136 32.335C143.98 32.701 143.752 33.019 143.452 33.289C143.152 33.559 142.777 33.769 142.327 33.919C141.883 34.069 141.373 34.144 140.797 34.144C140.479 34.144 140.17 34.114 139.87 34.054C139.576 34 139.294 33.925 139.024 33.829C138.76 33.727 138.511 33.607 138.277 33.469C138.049 33.331 137.845 33.181 137.665 33.019L138.115 32.281C138.169 32.191 138.235 32.122 138.313 32.074C138.397 32.02 138.499 31.993 138.619 31.993C138.745 31.993 138.868 32.035 138.988 32.119C139.114 32.197 139.258 32.284 139.42 32.38C139.588 32.476 139.789 32.566 140.023 32.65C140.257 32.728 140.548 32.767 140.896 32.767C141.184 32.767 141.433 32.734 141.643 32.668C141.853 32.596 142.027 32.5 142.165 32.38C142.303 32.26 142.405 32.125 142.471 31.975C142.537 31.819 142.57 31.654 142.57 31.48C142.57 31.246 142.504 31.054 142.372 30.904C142.24 30.754 142.063 30.625 141.841 30.517C141.625 30.409 141.376 30.313 141.094 30.229C140.818 30.145 140.536 30.055 140.248 29.959C139.96 29.863 139.675 29.752 139.393 29.626C139.117 29.5 138.868 29.341 138.646 29.149C138.43 28.951 138.256 28.714 138.124 28.438C137.992 28.156 137.926 27.814 137.926 27.412C137.926 27.046 137.998 26.698 138.142 26.368C138.292 26.038 138.508 25.747 138.79 25.495C139.078 25.243 139.429 25.045 139.843 24.901C140.263 24.751 140.746 24.676 141.292 24.676C141.91 24.676 142.471 24.775 142.975 24.973C143.479 25.171 143.902 25.441 144.244 25.783L143.812 26.485ZM152.21 28.375C152.21 28.051 152.162 27.751 152.066 27.475C151.976 27.193 151.841 26.95 151.661 26.746C151.481 26.536 151.256 26.374 150.986 26.26C150.722 26.14 150.416 26.08 150.068 26.08C149.366 26.08 148.814 26.281 148.412 26.683C148.01 27.085 147.755 27.649 147.647 28.375H152.21ZM147.593 29.563C147.617 30.085 147.698 30.538 147.836 30.922C147.974 31.3 148.157 31.615 148.385 31.867C148.619 32.119 148.895 32.308 149.213 32.434C149.537 32.554 149.897 32.614 150.293 32.614C150.671 32.614 150.998 32.572 151.274 32.488C151.55 32.398 151.79 32.302 151.994 32.2C152.198 32.092 152.372 31.996 152.516 31.912C152.66 31.822 152.792 31.777 152.912 31.777C153.068 31.777 153.188 31.837 153.272 31.957L153.821 32.668C153.593 32.938 153.335 33.166 153.047 33.352C152.759 33.538 152.453 33.691 152.129 33.811C151.805 33.925 151.472 34.006 151.13 34.054C150.788 34.108 150.455 34.135 150.131 34.135C149.495 34.135 148.904 34.03 148.358 33.82C147.818 33.604 147.347 33.289 146.945 32.875C146.549 32.461 146.237 31.948 146.009 31.336C145.787 30.724 145.676 30.019 145.676 29.221C145.676 28.585 145.775 27.991 145.973 27.439C146.177 26.887 146.465 26.407 146.837 25.999C147.215 25.591 147.671 25.27 148.205 25.036C148.745 24.796 149.354 24.676 150.032 24.676C150.596 24.676 151.118 24.769 151.598 24.955C152.078 25.135 152.492 25.402 152.84 25.756C153.188 26.11 153.458 26.545 153.65 27.061C153.848 27.571 153.947 28.153 153.947 28.807C153.947 29.107 153.914 29.308 153.848 29.41C153.782 29.512 153.662 29.563 153.488 29.563H147.593Z" fill="black"/>
</svg>
